<svg xmlns="http://www.w3.org/2000/svg" width="189" height="186.426" viewBox="0 0 189 186.426">
  <g id="Group_37_Copy" data-name="Group 37 Copy" transform="translate(0 -0.177)">
    <path id="Fill_1" data-name="Fill 1" d="M.132,0V0Z" transform="translate(94.368 0.26)" fill="none" stroke="#667f8a" stroke-miterlimit="10" stroke-width="1"/>
    <path id="Fill_2" data-name="Fill 2" d="M0,0,1.313,7.874Z" transform="translate(78.75 0.26)" fill="none" stroke="#667f8a" stroke-miterlimit="10" stroke-width="1"/>
    <path id="Fill_3" data-name="Fill 3" d="M3.281,7.874,0,0" transform="translate(62.344 4.196)" fill="none" stroke="#667f8a" stroke-miterlimit="10" stroke-width="1"/>
    <path id="Fill_4" data-name="Fill 4" d="M3.938,7.218,0,0" transform="translate(47.25 11.414)" fill="none" stroke="#667f8a" stroke-miterlimit="10" stroke-width="1"/>
    <path id="Fill_5" data-name="Fill 5" d="M5.25,6.561,0,0" transform="translate(34.125 19.944)" fill="none" stroke="#667f8a" stroke-miterlimit="10" stroke-width="1"/>
    <path id="Fill_6" data-name="Fill 6" d="M6.563,5.249,0,0" transform="translate(22.313 32.41)" fill="none" stroke="#667f8a" stroke-miterlimit="10" stroke-width="1"/>
    <path id="Fill_7" data-name="Fill 7" d="M7.219,3.937,0,0" transform="translate(12.469 45.533)" fill="none" stroke="#667f8a" stroke-miterlimit="10" stroke-width="1"/>
    <path id="Fill_8" data-name="Fill 8" d="M7.875,3.281,0,0" transform="translate(5.906 59.968)" fill="none" stroke="#667f8a" stroke-miterlimit="10" stroke-width="1"/>
    <path id="Fill_9" data-name="Fill 9" d="M7.875,1.312,0,0" transform="translate(1.313 76.372)" fill="none" stroke="#667f8a" stroke-miterlimit="10" stroke-width="1"/>
    <path id="Fill_10" data-name="Fill 10" d="M0,.132H0Z" transform="translate(0 92.644)" fill="none" stroke="#667f8a" stroke-miterlimit="10" stroke-width="1"/>
    <path id="Fill_11" data-name="Fill 11" d="M7.875,0,0,1.312" transform="translate(1.313 107.867)" fill="none" stroke="#667f8a" stroke-miterlimit="10" stroke-width="1"/>
    <path id="Fill_12" data-name="Fill 12" d="M7.875,0,0,3.281" transform="translate(5.906 122.302)" fill="none" stroke="#667f8a" stroke-miterlimit="10" stroke-width="1"/>
    <path id="Fill_13" data-name="Fill 13" d="M7.219,0,0,3.937" transform="translate(12.469 136.081)" fill="none" stroke="#667f8a" stroke-miterlimit="10" stroke-width="1"/>
    <path id="Fill_14" data-name="Fill 14" d="M6.563,0,0,5.249" transform="translate(22.313 147.891)" fill="none" stroke="#667f8a" stroke-miterlimit="10" stroke-width="1"/>
    <path id="Fill_15" data-name="Fill 15" d="M5.25,0,0,6.561" transform="translate(34.125 157.733)" fill="none" stroke="#667f8a" stroke-miterlimit="10" stroke-width="1"/>
    <path id="Fill_16" data-name="Fill 16" d="M3.938,0,0,7.218" transform="translate(47.25 166.919)" fill="none" stroke="#667f8a" stroke-miterlimit="10" stroke-width="1"/>
    <path id="Fill_17" data-name="Fill 17" d="M3.281,0,0,7.874" transform="translate(62.344 173.481)" fill="none" stroke="#667f8a" stroke-miterlimit="10" stroke-width="1"/>
    <path id="Fill_18" data-name="Fill 18" d="M1.313,0,0,7.874" transform="translate(78.75 178.074)" fill="none" stroke="#667f8a" stroke-miterlimit="10" stroke-width="1"/>
    <path id="Fill_19" data-name="Fill 19" d="M.132,7.874v0Z" transform="translate(94.368 178.73)" fill="none" stroke="#667f8a" stroke-miterlimit="10" stroke-width="1"/>
    <path id="Fill_20" data-name="Fill 20" d="M0,0,1.313,7.874" transform="translate(108.938 178.074)" fill="none" stroke="#667f8a" stroke-miterlimit="10" stroke-width="1"/>
    <path id="Fill_21" data-name="Fill 21" d="M0,0,3.281,7.874" transform="translate(123.375 173.481)" fill="none" stroke="#667f8a" stroke-miterlimit="10" stroke-width="1"/>
    <path id="Fill_22" data-name="Fill 22" d="M0,0,3.938,7.218" transform="translate(137.813 166.919)" fill="none" stroke="#667f8a" stroke-miterlimit="10" stroke-width="1"/>
    <path id="Fill_23" data-name="Fill 23" d="M0,0,5.25,6.561" transform="translate(149.625 157.733)" fill="none" stroke="#667f8a" stroke-miterlimit="10" stroke-width="1"/>
    <path id="Fill_24" data-name="Fill 24" d="M0,0,6.563,5.249" transform="translate(160.125 147.891)" fill="none" stroke="#667f8a" stroke-miterlimit="10" stroke-width="1"/>
    <path id="Fill_25" data-name="Fill 25" d="M0,0,7.219,3.937" transform="translate(169.313 136.081)" fill="none" stroke="#667f8a" stroke-miterlimit="10" stroke-width="1"/>
    <path id="Fill_26" data-name="Fill 26" d="M0,0,7.875,3.281" transform="translate(175.219 122.302)" fill="none" stroke="#667f8a" stroke-miterlimit="10" stroke-width="1"/>
    <path id="Fill_27" data-name="Fill 27" d="M0,0,7.875,1.312" transform="translate(179.813 107.867)" fill="none" stroke="#667f8a" stroke-miterlimit="10" stroke-width="1"/>
    <path id="Fill_28" data-name="Fill 28" d="M0,.132H0Z" transform="translate(181.125 92.644)" fill="none" stroke="#667f8a" stroke-miterlimit="10" stroke-width="1"/>
    <path id="Fill_29" data-name="Fill 29" d="M0,1.312,7.875,0" transform="translate(179.813 76.372)" fill="none" stroke="#667f8a" stroke-miterlimit="10" stroke-width="1"/>
    <path id="Fill_30" data-name="Fill 30" d="M0,3.281,7.875,0" transform="translate(175.219 59.968)" fill="none" stroke="#667f8a" stroke-miterlimit="10" stroke-width="1"/>
    <path id="Fill_31" data-name="Fill 31" d="M0,3.937,7.219,0" transform="translate(169.313 45.533)" fill="none" stroke="#667f8a" stroke-miterlimit="10" stroke-width="1"/>
    <path id="Fill_32" data-name="Fill 32" d="M0,5.249,6.563,0" transform="translate(160.125 32.41)" fill="none" stroke="#667f8a" stroke-miterlimit="10" stroke-width="1"/>
    <path id="Fill_33" data-name="Fill 33" d="M0,6.561,5.25,0" transform="translate(149.625 19.944)" fill="none" stroke="#667f8a" stroke-miterlimit="10" stroke-width="1"/>
    <path id="Fill_34" data-name="Fill 34" d="M0,7.218,3.938,0" transform="translate(137.813 11.414)" fill="none" stroke="#667f8a" stroke-miterlimit="10" stroke-width="1"/>
    <path id="Fill_35" data-name="Fill 35" d="M0,7.874,3.281,0" transform="translate(123.375 4.196)" fill="none" stroke="#667f8a" stroke-miterlimit="10" stroke-width="1"/>
    <path id="Fill_36" data-name="Fill 36" d="M1.313,0,0,7.874Z" transform="translate(108.938 0.26)" fill="none" stroke="#667f8a" stroke-miterlimit="10" stroke-width="1"/>
  </g>
</svg>
