<?xml version="1.0" encoding="UTF-8"?>
<svg width="64px" height="64px" viewBox="0 0 64 64" version="1.1" xmlns="http://www.w3.org/2000/svg" xmlns:xlink="http://www.w3.org/1999/xlink">
    <title>icon-tick-blue</title>
    <g id="(DEV)-Assets" stroke="none" stroke-width="1" fill="none" fill-rule="evenodd">
        <g id="icon-tick-blue" fill="#00293C" fill-rule="nonzero">
            <path d="M61.588,29.588 C60.2557333,29.588 59.176,30.6677333 59.176,32 C59.176,46.9853333 46.9853333,59.176 32,59.176 C17.0154933,59.176 4.82413333,46.9853333 4.82413333,32 C4.82413333,17.0154933 17.0154933,4.82413333 32,4.82413333 C33.3322667,4.82413333 34.412,3.74437333 34.412,2.41212533 C34.412,1.07974933 33.3322667,0 32,0 C14.3549867,0 0,14.3549867 0,32 C0,49.6442667 14.3549867,64 32,64 C49.6442667,64 64,49.6442667 64,32 C64,30.6677333 62.9202667,29.588 61.588,29.588 Z" id="Path"></path>
            <path d="M62.1698667,8.74946667 C61.2285333,7.80634667 59.7008,7.80472 58.7594667,8.74546667 L29.8226667,37.6056 L19.3825067,26.2665867 C18.4803733,25.2873333 16.95512,25.22384 15.97424,26.12584 C14.9941067,27.028 14.93136,28.5538667 15.8334933,29.5341333 L27.9741333,42.7192 C28.4189333,43.2024 29.0410667,43.4832 29.6973333,43.4968 C29.7149333,43.4976 29.732,43.4976 29.7488,43.4976 C30.3864,43.4976 30.9997333,43.2442667 31.4517333,42.7938667 L62.1653333,12.1608533 C63.1090667,11.2202133 63.1106667,9.69258667 62.1698667,8.74946667 Z" id="Path"></path>
        </g>
    </g>
</svg>