<svg id="Group_27_Copy_2" data-name="Group 27 Copy 2" xmlns="http://www.w3.org/2000/svg" xmlns:xlink="http://www.w3.org/1999/xlink" width="211.899" height="33.413" viewBox="0 0 211.899 33.413">
  <defs>
    <clipPath id="clip-path">
      <path id="Clip_20" data-name="Clip 20" d="M0,0H20.842V27.307H0Z" transform="translate(0.057 0.107)" fill="none"/>
    </clipPath>
  </defs>
  <path id="Fill_1" data-name="Fill 1" d="M12.864,21V9.732c0-2.744-.961-4.024-3.216-4.024-2.476,0-3.512,1.354-3.512,4.1V21H0V.7H5.73V2.854H5.8A5.918,5.918,0,0,1,11.385,0C15.082,0,19,2.049,19,8.049V21Z" transform="translate(0 6)" fill="#00293c"/>
  <path id="Fill_3" data-name="Fill 3" d="M11,21C4.729,21,0,16.486,0,10.5A10.207,10.207,0,0,1,3.21,2.954,11.31,11.31,0,0,1,11,0a11.317,11.317,0,0,1,7.8,2.972A10.111,10.111,0,0,1,22,10.429a10.318,10.318,0,0,1-3.2,7.608A11.281,11.281,0,0,1,11,21ZM10.964,5.517A4.985,4.985,0,0,0,11,15.484,4.886,4.886,0,0,0,15.893,10.5,4.962,4.962,0,0,0,10.964,5.517Z" transform="translate(20 6)" fill="#00293c"/>
  <path id="Fill_5" data-name="Fill 5" d="M0,21V.7H5.7V2.854h.073C6.836.7,9.66,0,12,0V6.11C8.381,6.147,6.068,7.5,6.068,9.8V21Z" transform="translate(44 6)" fill="#00293c"/>
  <path id="Fill_7" data-name="Fill 7" d="M0,5.9V0H6.189V5.9H11v6.246H6.189V27H0V5.9Z" transform="translate(58)" fill="#00293c"/>
  <path id="Fill_9" data-name="Fill 9" d="M12.864,27V15.872c0-2.627-1.035-4.123-3.29-4.123-2.329,0-3.438,1.35-3.438,3.868V27H0V0H6.136V8.684c.887-1.642,2.883-2.627,5.323-2.627,4.694,0,7.541,2.919,7.541,8.21V27Z" transform="translate(71)" fill="#00293c"/>
  <path id="Fill_11" data-name="Fill 11" d="M24.96,21V10.061c0-3.182-1.019-4.354-3.093-4.354-2.292,0-3.347,1.391-3.347,4.061V21H12.48V9.8c0-2.634-.946-4.1-3.02-4.1-2.365,0-3.42,1.537-3.42,4.354V21H0V.7H5.64V2.854h.073C6.768.952,8.7,0,11.279,0A6.373,6.373,0,0,1,17.1,3.622,7.3,7.3,0,0,1,23.5,0C28.017,0,31,2.781,31,8.451V21Z" transform="translate(94 6)" fill="#00c7be"/>
  <path id="Fill_13" data-name="Fill 13" d="M11,21C4.729,21,0,16.486,0,10.5A10.207,10.207,0,0,1,3.21,2.954,11.31,11.31,0,0,1,11,0a11.318,11.318,0,0,1,7.8,2.972A10.11,10.11,0,0,1,22,10.428a10.319,10.319,0,0,1-3.2,7.608A11.28,11.28,0,0,1,11,21ZM10.964,5.517A4.985,4.985,0,0,0,11,15.484,4.886,4.886,0,0,0,15.893,10.5,4.962,4.962,0,0,0,10.964,5.517Z" transform="translate(127 6)" fill="#00c7be"/>
  <path id="Fill_15" data-name="Fill 15" d="M12.864,21V9.732c0-2.744-.961-4.024-3.216-4.024-2.477,0-3.512,1.354-3.512,4.1V21H0V.7H5.73V2.854H5.8A5.917,5.917,0,0,1,11.385,0C15.082,0,19,2.049,19,8.049V21Z" transform="translate(150 6)" fill="#00c7be"/>
  <path id="Fill_17" data-name="Fill 17" d="M10.572,21a10.6,10.6,0,0,1-7.444-3.02A10.27,10.27,0,0,1,0,10.571,10.578,10.578,0,0,1,3.034,3.157,10.3,10.3,0,0,1,10.464,0,10.406,10.406,0,0,1,17.97,3.086,10.838,10.838,0,0,1,21,10.749a7.433,7.433,0,0,1-.143,1.561H5.9a4.438,4.438,0,0,0,4.675,3.724A4.19,4.19,0,0,0,14.2,14.189h6.113A11.975,11.975,0,0,1,16.307,19.2,9.976,9.976,0,0,1,10.572,21ZM10.464,4.966A4.418,4.418,0,0,0,5.97,8.337h9.061A4.439,4.439,0,0,0,10.464,4.966Z" transform="translate(171 6)" fill="#00c7be"/>
  <g id="Group_21" data-name="Group 21" transform="translate(191 6)">
    <path id="Clip_20-2" data-name="Clip 20" d="M0,0H20.842V27.307H0Z" transform="translate(0.057 0.107)" fill="none"/>
    <g id="Group_21-2" data-name="Group 21" clip-path="url(#clip-path)">
      <path id="Fill_19" data-name="Fill 19" d="M4.3,27.307l3.207-7.86L0,0H6.449l4.045,11.882h.073L14.429,0h6.413L10.713,27.307Z" transform="translate(0.057 0.107)" fill="#00c7be"/>
    </g>
  </g>
  <path id="Fill_25" data-name="Fill 25" d="M1,2a1.008,1.008,0,0,1-.719-.269A.893.893,0,0,1,0,1.058V.916A.857.857,0,0,1,.287.265,1.021,1.021,0,0,1,1,0a1.006,1.006,0,0,1,.711.267A.856.856,0,0,1,2,.916v.141a.892.892,0,0,1-.283.673A1,1,0,0,1,1,2ZM1,.187a.889.889,0,0,0-.416.1A.75.75,0,0,0,.3.548a.683.683,0,0,0-.1.368v.141A.711.711,0,0,0,.422,1.6.817.817,0,0,0,1,1.813.82.82,0,0,0,1.581,1.6a.707.707,0,0,0,.23-.541V.916A.676.676,0,0,0,1.58.4.834.834,0,0,0,1,.187ZM.838,1.467H.651V.5H1.1a.3.3,0,0,1,.218.083A.276.276,0,0,1,1.4.783a.306.306,0,0,1-.055.183.256.256,0,0,1-.143.1l.226.4H1.209l-.194-.375H.838v.375Zm0-.835V.956H1c.142,0,.213-.055.213-.165A.143.143,0,0,0,1.16.672a.208.208,0,0,0-.134-.04Z" transform="translate(207 25)" fill="#00c7be"/>
</svg>
