<svg xmlns="http://www.w3.org/2000/svg" width="61.242" height="52" viewBox="0 0 61.242 52">
  <g id="Group_27" data-name="Group 27" transform="translate(1.273 1)">
    <path id="Stroke_1" data-name="Stroke 1" d="M2.174,1.087A1.087,1.087,0,1,1,1.087,0,1.087,1.087,0,0,1,2.174,1.087Z" transform="translate(28.261 39.13)" fill="none" stroke="#00c7be" stroke-linecap="round" stroke-linejoin="round" stroke-miterlimit="10" stroke-width="2"/>
    <path id="Stroke_3" data-name="Stroke 3" d="M.543,2.174V0" transform="translate(28.804 41.304)" fill="none" stroke="#00c7be" stroke-linecap="round" stroke-linejoin="round" stroke-miterlimit="10" stroke-width="2"/>
    <path id="Stroke_5" data-name="Stroke 5" d="M23.913,14.13a3.261,3.261,0,0,1-3.261,3.261H3.261A3.261,3.261,0,0,1,0,14.13V3.261A3.261,3.261,0,0,1,3.261,0H20.652a3.261,3.261,0,0,1,3.261,3.261Z" transform="translate(17.391 32.609)" fill="none" stroke="#00c7be" stroke-linecap="round" stroke-linejoin="round" stroke-miterlimit="10" stroke-width="2"/>
    <path id="Stroke_7" data-name="Stroke 7" d="M0,13.043V7.609a7.609,7.609,0,1,1,15.217,0v5.435" transform="translate(21.739 19.565)" fill="none" stroke="#00c7be" stroke-linecap="round" stroke-linejoin="round" stroke-miterlimit="10" stroke-width="2"/>
    <path id="Stroke_9" data-name="Stroke 9" d="M27.92,17.189a14.13,14.13,0,1,0-27.578,0" transform="translate(15.217 13.044)" fill="none" stroke="#00293c" stroke-linecap="round" stroke-linejoin="round" stroke-miterlimit="10" stroke-width="2"/>
    <path id="Stroke_11" data-name="Stroke 11" d="M1.125,0,0,4.2" transform="translate(38.913 1.408)" fill="none" stroke="#00293c" stroke-linecap="round" stroke-linejoin="round" stroke-miterlimit="10" stroke-width="2"/>
    <path id="Stroke_13" data-name="Stroke 13" d="M2.174,0,0,3.765" transform="translate(47.826 5.533)" fill="none" stroke="#00293c" stroke-linecap="round" stroke-linejoin="round" stroke-miterlimit="10" stroke-width="2"/>
    <path id="Stroke_15" data-name="Stroke 15" d="M3.075,0,0,3.075" transform="translate(55.479 12.098)" fill="none" stroke="#00293c" stroke-linecap="round" stroke-linejoin="round" stroke-miterlimit="10" stroke-width="2"/>
    <path id="Stroke_17" data-name="Stroke 17" d="M3.075,3.075,0,0" transform="translate(0.141 12.097)" fill="none" stroke="#00293c" stroke-linecap="round" stroke-linejoin="round" stroke-miterlimit="10" stroke-width="2"/>
    <path id="Stroke_19" data-name="Stroke 19" d="M2.174,3.765,0,0" transform="translate(8.696 5.534)" fill="none" stroke="#00293c" stroke-linecap="round" stroke-linejoin="round" stroke-miterlimit="10" stroke-width="2"/>
    <path id="Stroke_21" data-name="Stroke 21" d="M1.125,4.2,0,0" transform="translate(18.658 1.407)" fill="none" stroke="#00293c" stroke-linecap="round" stroke-linejoin="round" stroke-miterlimit="10" stroke-width="2"/>
    <path id="Stroke_23" data-name="Stroke 23" d="M.543,4.348V0" transform="translate(28.804)" fill="none" stroke="#00293c" stroke-linecap="round" stroke-linejoin="round" stroke-miterlimit="10" stroke-width="2"/>
    <path id="Stroke_25" data-name="Stroke 25" d="M45.652,32.293A37.039,37.039,0,0,0,58.7,18.478C52.565,7.385,41.717,0,29.348,0S6.13,7.385,0,18.478A37.039,37.039,0,0,0,13.043,32.293" transform="translate(0 8.696)" fill="none" stroke="#00293c" stroke-linecap="round" stroke-linejoin="round" stroke-miterlimit="10" stroke-width="2"/>
  </g>
</svg>
