<svg xmlns="http://www.w3.org/2000/svg" width="37.185" height="52" viewBox="0 0 37.185 52">
  <g id="Group_25" data-name="Group 25" transform="translate(1 1)">
    <path id="Stroke_1" data-name="Stroke 1" d="M7.407,0H3.7A3.7,3.7,0,0,0,0,3.7V38.889a3.7,3.7,0,0,0,3.7,3.7H31.481a3.7,3.7,0,0,0,3.7-3.7V3.7a3.7,3.7,0,0,0-3.7-3.7h-3.7" transform="translate(0 7.407)" fill="none" stroke="#00293c" stroke-linecap="round" stroke-linejoin="round" stroke-miterlimit="10" stroke-width="2"/>
    <path id="Stroke_3" data-name="Stroke 3" d="M0,.926a.926.926,0,1,1,.926.926A.926.926,0,0,1,0,.926Z" transform="translate(16.667 3.704)" fill="none" stroke="#00293c" stroke-linecap="round" stroke-linejoin="round" stroke-miterlimit="10" stroke-width="2"/>
    <path id="Stroke_5" data-name="Stroke 5" d="M10.185,0a4.632,4.632,0,0,1,4.487,3.486,1.845,1.845,0,0,0,1.484,1.367l2.667.445A1.851,1.851,0,0,1,20.37,7.124v3.987a1.853,1.853,0,0,1-1.852,1.852H1.852A1.853,1.853,0,0,1,0,11.111V7.124A1.851,1.851,0,0,1,1.547,5.3l2.667-.445A1.845,1.845,0,0,0,5.7,3.486,4.632,4.632,0,0,1,10.185,0" transform="translate(7.407)" fill="none" stroke="#00293c" stroke-linejoin="round" stroke-miterlimit="10" stroke-width="2"/>
    <path id="Stroke_7" data-name="Stroke 7" d="M0,.463H9.259" transform="translate(16.667 31.019)" fill="none" stroke="#00293c" stroke-linecap="round" stroke-linejoin="round" stroke-miterlimit="10" stroke-width="2"/>
    <path id="Stroke_9" data-name="Stroke 9" d="M0,.463H9.259" transform="translate(16.667 21.759)" fill="none" stroke="#00293c" stroke-linecap="round" stroke-linejoin="round" stroke-miterlimit="10" stroke-width="2"/>
    <path id="Stroke_11" data-name="Stroke 11" d="M5.556,0,3.7,1.852,1.852,3.7,0,1.852" transform="translate(5.556 18.519)" fill="none" stroke="#00c7be" stroke-linecap="round" stroke-linejoin="round" stroke-miterlimit="10" stroke-width="2"/>
    <path id="Stroke_13" data-name="Stroke 13" d="M5.556,0,3.7,1.852,1.852,3.7,0,1.852" transform="translate(5.556 37.037)" fill="none" stroke="#00c7be" stroke-linecap="round" stroke-linejoin="round" stroke-miterlimit="10" stroke-width="2"/>
    <path id="Stroke_15" data-name="Stroke 15" d="M5.556,0,3.7,1.852,1.852,3.7,0,1.852" transform="translate(5.556 27.778)" fill="none" stroke="#00c7be" stroke-linecap="round" stroke-linejoin="round" stroke-miterlimit="10" stroke-width="2"/>
    <path id="Stroke_17" data-name="Stroke 17" d="M0,.463H12.963" transform="translate(16.667 27.315)" fill="none" stroke="#00293c" stroke-linecap="round" stroke-linejoin="round" stroke-miterlimit="10" stroke-width="2"/>
    <path id="Stroke_19" data-name="Stroke 19" d="M0,.463H12.963" transform="translate(16.667 18.056)" fill="none" stroke="#00293c" stroke-linecap="round" stroke-linejoin="round" stroke-miterlimit="10" stroke-width="2"/>
    <path id="Stroke_21" data-name="Stroke 21" d="M0,.463H9.259" transform="translate(16.667 40.278)" fill="none" stroke="#00293c" stroke-linecap="round" stroke-linejoin="round" stroke-miterlimit="10" stroke-width="2"/>
    <path id="Stroke_23" data-name="Stroke 23" d="M0,.463H12.963" transform="translate(16.667 36.574)" fill="none" stroke="#00293c" stroke-linecap="round" stroke-linejoin="round" stroke-miterlimit="10" stroke-width="2"/>
  </g>
</svg>
