<svg xmlns="http://www.w3.org/2000/svg" width="64.791" height="50.837" viewBox="0 0 64.791 50.837">
  <g id="Group_23" data-name="Group 23" transform="translate(1 1)">
    <path id="Stroke_1" data-name="Stroke 1" d="M.581,6.977V0" transform="translate(27.326 41.86)" fill="none" stroke="#00293c" stroke-linecap="round" stroke-linejoin="round" stroke-miterlimit="10" stroke-width="2"/>
    <path id="Stroke_3" data-name="Stroke 3" d="M20.93.581H0" transform="translate(20.93 48.256)" fill="none" stroke="#00293c" stroke-linecap="round" stroke-linejoin="round" stroke-miterlimit="10" stroke-width="2"/>
    <path id="Stroke_5" data-name="Stroke 5" d="M.581,0V6.977" transform="translate(34.302 41.86)" fill="none" stroke="#00293c" stroke-linecap="round" stroke-linejoin="round" stroke-miterlimit="10" stroke-width="2"/>
    <path id="Stroke_7" data-name="Stroke 7" d="M3.488,0A3.488,3.488,0,0,0,0,3.488V38.372A3.488,3.488,0,0,0,3.488,41.86H59.3a3.488,3.488,0,0,0,3.488-3.488V3.488A3.488,3.488,0,0,0,59.3,0Z" fill="none" stroke="#00293c" stroke-linecap="round" stroke-linejoin="round" stroke-miterlimit="10" stroke-width="2"/>
    <path id="Stroke_9" data-name="Stroke 9" d="M15.786,5.92,0,0,5.92,15.786l2.072-4.835,5.328,5.328,2.959-2.959L10.951,7.992Z" transform="translate(34.883 18.604)" fill="none" stroke="#00c7be" stroke-linecap="round" stroke-linejoin="round" stroke-miterlimit="10" stroke-width="2"/>
    <path id="Stroke_11" data-name="Stroke 11" d="M6.977,0H2.326a2.326,2.326,0,0,0,0,4.651H4.651a2.326,2.326,0,1,1,0,4.651H0" transform="translate(19.767 16.279)" fill="none" stroke="#00293c" stroke-linecap="round" stroke-linejoin="round" stroke-miterlimit="10" stroke-width="2"/>
    <path id="Stroke_13" data-name="Stroke 13" d="M.581,0V3.488" transform="translate(22.674 12.791)" fill="none" stroke="#00293c" stroke-linecap="round" stroke-linejoin="round" stroke-miterlimit="10" stroke-width="2"/>
    <path id="Stroke_15" data-name="Stroke 15" d="M.581,0V3.488" transform="translate(22.674 25.581)" fill="none" stroke="#00293c" stroke-linecap="round" stroke-linejoin="round" stroke-miterlimit="10" stroke-width="2"/>
    <path id="Stroke_17" data-name="Stroke 17" d="M11.628.581H0" transform="translate(41.86 8.721)" fill="none" stroke="#00293c" stroke-linecap="round" stroke-linejoin="round" stroke-miterlimit="10" stroke-width="2"/>
    <path id="Stroke_19" data-name="Stroke 19" d="M11.628.581H0" transform="translate(41.86 15.698)" fill="none" stroke="#00293c" stroke-linecap="round" stroke-linejoin="round" stroke-miterlimit="10" stroke-width="2"/>
    <path id="Stroke_21" data-name="Stroke 21" d="M25.907,6.783a13.945,13.945,0,1,0-1.124,15.964" transform="translate(9.303 6.618)" fill="none" stroke="#00293c" stroke-linecap="round" stroke-linejoin="round" stroke-miterlimit="10" stroke-width="2"/>
  </g>
</svg>
