<?xml version="1.0" encoding="UTF-8"?>
<svg width="64px" height="64px" viewBox="0 0 64 64" version="1.1" xmlns="http://www.w3.org/2000/svg" xmlns:xlink="http://www.w3.org/1999/xlink">
    <title>icon-dark-call</title>
    <defs>
        <rect id="path-1" x="0" y="0" width="64" height="64"></rect>
    </defs>
    <g id="(DEV)-Assets" stroke="none" stroke-width="1" fill="none" fill-rule="evenodd">
        <g id="icon-dark-call">
            <mask id="mask-2" fill="white">
                <use xlink:href="#path-1"></use>
            </mask>
            <g id="Mask"></g>
            <g id="icon-call" mask="url(#mask-2)" stroke-linejoin="round" stroke-width="2">
                <g transform="translate(7.000000, 7.000000)">
                    <path d="M26.0869565,0 C39.2934783,0 50,10.7065217 50,23.9130435" id="Stroke-1" stroke="#00C7BE" stroke-linecap="round"></path>
                    <path d="M26.0869565,6.52173913 C35.6913043,6.52173913 43.4782609,14.3086957 43.4782609,23.9130435" id="Stroke-3" stroke="#00C7BE" stroke-linecap="round"></path>
                    <path d="M26.0869565,13.0434783 C32.0902174,13.0434783 36.9565217,17.9097826 36.9565217,23.9130435" id="Stroke-5" stroke="#00C7BE" stroke-linecap="round"></path>
                    <path d="M12.4629348,37.5370652 C1.17163043,26.2457609 -3.2598913,12.3696739 2.5651087,6.54358696 C3.80097826,5.30880435 5.93793478,3.71967391 7.51945652,2.59902174 C8.60206522,1.83271739 10.1042391,2.13271739 10.8107609,3.25445652 L17.7509783,14.2653261 C18.4433696,15.3631522 18.0966304,16.816413 16.9825,17.4838043 L12.9140217,19.9240217 C11.7629348,20.6142391 11.4227174,22.1381522 12.1966304,23.2327174 C14.0727174,25.8870652 16.4411957,28.5338043 18.9542391,31.0457609 C21.4661957,33.5588043 24.1129348,35.9272826 26.7672826,37.8033696 C27.8618478,38.5772826 29.3857609,38.2370652 30.0759783,37.0859783 L32.5161957,33.0175 C33.183587,31.9033696 34.6368478,31.5566304 35.7346739,32.2490217 L46.7455435,39.1892391 C47.8672826,39.8957609 48.1672826,41.3979348 47.4009783,42.4805435 C46.2803261,44.0620652 44.6911957,46.2001087 43.456413,47.4338043 C37.6303261,53.2598913 23.7542391,48.8294565 12.4629348,37.5370652 Z" id="Stroke-7" stroke="#00293C"></path>
                </g>
            </g>
        </g>
    </g>
</svg>