<svg xmlns="http://www.w3.org/2000/svg" xmlns:xlink="http://www.w3.org/1999/xlink" width="56" height="50" viewBox="0 0 56 50">
  <defs>
    <clipPath id="clip-path">
      <path id="Clip_6" data-name="Clip 6" d="M0,50H56V0H0Z" fill="none"/>
    </clipPath>
  </defs>
  <g id="Group_14" data-name="Group 14" transform="translate(0)">
    <path id="Stroke_1" data-name="Stroke 1" d="M5.436,10.5,4.244,1.781A2.1,2.1,0,0,0,2.132,0h0A2.09,2.09,0,0,0,0,2.048V16.676A3.774,3.774,0,0,0,1.172,19.4l8.243,7.926A1.886,1.886,0,0,1,10,28.681v.165" transform="translate(0.999 14.423)" fill="none" stroke="#00293c" stroke-linecap="round" stroke-linejoin="round" stroke-miterlimit="10" stroke-width="2"/>
    <path id="Stroke_3" data-name="Stroke 3" d="M20.228,18.461V14.787a8.689,8.689,0,0,0-7.112-8.465A18.708,18.708,0,0,0,11.2,6.058a4.09,4.09,0,0,1-2.49-1.106L4.369.774A2.676,2.676,0,0,0,.924.51,2.344,2.344,0,0,0,.732,4.077l6.961,6.692" transform="translate(4.772 24.808)" fill="none" stroke="#00293c" stroke-linecap="round" stroke-linejoin="round" stroke-miterlimit="10" stroke-width="2"/>
    <path id="Clip_6-2" data-name="Clip 6" d="M0,50H56V0H0Z" fill="none"/>
    <g id="Group_14-2" data-name="Group 14" clip-path="url(#clip-path)">
      <path id="Stroke_5" data-name="Stroke 5" d="M0,5.769H16V0H0Z" transform="translate(9 43.269)" fill="none" stroke="#00293c" stroke-linecap="round" stroke-linejoin="round" stroke-miterlimit="10" stroke-width="2"/>
      <path id="Stroke_7" data-name="Stroke 7" d="M0,5.769H16V0H0Z" transform="translate(31 43.269)" fill="none" stroke="#00293c" stroke-linecap="round" stroke-linejoin="round" stroke-miterlimit="10" stroke-width="2"/>
      <path id="Stroke_8" data-name="Stroke 8" d="M4.564,10.5,5.756,1.781A2.1,2.1,0,0,1,7.868,0h0A2.09,2.09,0,0,1,10,2.048V16.676A3.774,3.774,0,0,1,8.828,19.4L.585,27.321A1.886,1.886,0,0,0,0,28.681v.165" transform="translate(45 14.423)" fill="none" stroke="#00293c" stroke-linecap="round" stroke-linejoin="round" stroke-miterlimit="10" stroke-width="2"/>
      <path id="Stroke_9" data-name="Stroke 9" d="M0,18.461V14.787A8.689,8.689,0,0,1,7.112,6.322a18.708,18.708,0,0,1,1.912-.264,4.09,4.09,0,0,0,2.49-1.106L15.859.774A2.676,2.676,0,0,1,19.3.51,2.344,2.344,0,0,1,19.5,4.077l-6.961,6.692" transform="translate(31 24.808)" fill="none" stroke="#00293c" stroke-linecap="round" stroke-linejoin="round" stroke-miterlimit="10" stroke-width="2"/>
      <path id="Stroke_10" data-name="Stroke 10" d="M30,14.423c0,7.965-6.716,14.423-15,14.423S0,22.388,0,14.423,6.716,0,15,0,30,6.458,30,14.423Z" transform="translate(13 0.962)" fill="none" stroke="#00293c" stroke-linecap="round" stroke-linejoin="round" stroke-miterlimit="10" stroke-width="2"/>
      <path id="Stroke_11" data-name="Stroke 11" d="M6,0H2A1.963,1.963,0,0,0,0,1.923,1.963,1.963,0,0,0,2,3.846H4A1.963,1.963,0,0,1,6,5.769,1.963,1.963,0,0,1,4,7.692H0" transform="translate(25 11.538)" fill="none" stroke="#00c7be" stroke-linecap="round" stroke-linejoin="round" stroke-miterlimit="10" stroke-width="2"/>
      <path id="Stroke_12" data-name="Stroke 12" d="M.5,0V2.885" transform="translate(27.5 8.654)" fill="none" stroke="#00c7be" stroke-linecap="round" stroke-linejoin="round" stroke-miterlimit="10" stroke-width="2"/>
      <path id="Stroke_13" data-name="Stroke 13" d="M.5,0V2.885" transform="translate(27.5 19.231)" fill="none" stroke="#00c7be" stroke-linecap="round" stroke-linejoin="round" stroke-miterlimit="10" stroke-width="2"/>
    </g>
  </g>
</svg>
