<?xml version="1.0" encoding="UTF-8"?>
<svg width="64px" height="64px" viewBox="0 0 64 64" version="1.1" xmlns="http://www.w3.org/2000/svg" xmlns:xlink="http://www.w3.org/1999/xlink">
    <title>icon-dark-phone</title>
    <defs>
        <rect id="path-1" x="0" y="0" width="64" height="64"></rect>
    </defs>
    <g id="(DEV)-Assets" stroke="none" stroke-width="1" fill="none" fill-rule="evenodd">
        <g id="icon-dark-phone">
            <mask id="mask-2" fill="white">
                <use xlink:href="#path-1"></use>
            </mask>
            <g id="Mask"></g>
            <path d="M20.0293809,43.9707975 C8.22477371,32.1661903 3.59179491,17.6592962 9.68159951,11.5683552 C10.9736517,10.2774393 13.2077543,8.61606701 14.8611721,7.44446997 C15.9929962,6.64332941 17.5634589,6.95696741 18.3020992,8.12970083 L25.557819,19.6411247 C26.2816864,20.788858 25.9191845,22.3081841 24.7544057,23.005915 L20.5009743,25.5570648 C19.2975589,26.2786595 18.9418753,27.8718496 19.7509704,29.0161738 C21.7123443,31.7911883 24.1884936,34.5582482 26.8157801,37.1843983 C29.4419302,39.8116848 32.2089901,42.2878341 34.9840047,44.2492081 C36.1283288,45.0583032 37.721519,44.7026195 38.4431137,43.4992041 L40.9942634,39.2457728 C41.6919943,38.0809939 43.2113205,37.7184921 44.3590537,38.4423595 L55.8704776,45.6980793 C57.043211,46.4367195 57.356849,48.0071823 56.5557085,49.1390064 C55.3841114,50.7924241 53.7227391,53.0276631 52.4318233,54.3174426 C46.3408823,60.4083835 31.8339882,55.7765411 20.0293809,43.9707975 Z" id="Stroke-7" stroke="#00293C" stroke-width="2" stroke-linejoin="round" mask="url(#mask-2)"></path>
        </g>
    </g>
</svg>