<?xml version="1.0" encoding="UTF-8"?>
<svg width="64px" height="64px" viewBox="0 0 64 64" version="1.1" xmlns="http://www.w3.org/2000/svg" xmlns:xlink="http://www.w3.org/1999/xlink">
    <title>icon-dark-money-app</title>
    <defs>
        <rect id="path-1" x="0" y="0" width="64" height="64"></rect>
    </defs>
    <g id="(DEV)-Assets" stroke="none" stroke-width="1" fill="none" fill-rule="evenodd">
        <g id="icon-dark-money-app">
            <mask id="mask-2" fill="white">
                <use xlink:href="#path-1"></use>
            </mask>
            <g id="Mask"></g>
            <g id="icon-money-app" mask="url(#mask-2)" stroke-linecap="round" stroke-linejoin="round" stroke-width="2">
                <g transform="translate(10.000000, 7.000000)">
                    <line x1="23.1481481" y1="3.7037037" x2="23.1481481" y2="3.7037037" id="Stroke-63" stroke="#00293C"></line>
                    <path d="M38.7361111,35.8059259 C37.712037,36.83 36.0518519,36.83 35.0277778,35.8059259 C34.0037037,34.7818519 34.0037037,33.1216667 35.0277778,32.0975926 L36.2638889,30.8605556 C37.287963,29.8364815 38.9481481,29.8364815 39.9722222,30.8605556 C40.9962963,31.8846296 40.9962963,33.5457407 39.9722222,34.5698148 L38.7361111,35.8059259 Z" id="Stroke-65" stroke="#00293C"></path>
                    <path d="M37.8101852,29.7874074 C36.7861111,30.8114815 35.1259259,30.8114815 34.1018519,29.7874074 C33.0777778,28.7633333 33.0777778,27.1031481 34.1018519,26.0790741 L36.2638889,23.9161111 C37.287963,22.892037 38.9481481,22.892037 39.9722222,23.9161111 C40.9962963,24.9401852 40.9962963,26.6012963 39.9722222,27.6253704 L37.8101852,29.7874074 Z" id="Stroke-67" stroke="#00293C"></path>
                    <path d="M36.8842593,23.3059259 C35.8601852,24.33 34.2,24.33 33.1759259,23.3059259 C32.1518519,22.2818519 32.1518519,20.6216667 33.1759259,19.5975926 L36.2638889,16.5087037 C37.287963,15.4846296 38.9481481,15.4846296 39.9722222,16.5087037 C40.9962963,17.5327778 40.9962963,19.1938889 39.9722222,20.217963 L36.8842593,23.3059259 Z" id="Stroke-69" stroke="#00293C"></path>
                    <path d="M35.1851852,15.7407407 L41.825,9.10462963 C42.8481481,8.08055556 42.8481481,6.4212963 41.825,5.39722222 C40.8009259,4.37407407 39.1416667,4.37407407 38.1175926,5.39722222 L35.1851852,8.33055556" id="Stroke-71" stroke="#00293C"></path>
                    <line x1="25" y1="37.037037" x2="21.2962963" y2="37.037037" id="Stroke-73" stroke="#00293C"></line>
                    <path d="M11.1111111,27.7777778 C13.8824074,19.4638889 14.725,12.1083333 10.8768519,9.88425926 C9.71944444,9.21574074 8.28240741,10.0851852 8.1712963,11.4175926 C7.67777778,17.3324074 5.53055556,21.3481481 3.875,23.6287037 C2.52962963,25.4805556 1.85185185,27.7314815 1.85185185,30.0194444 L1.85185185,34.7361111 C1.85185185,36.2092593 1.26666667,37.6222222 0.225,38.6638889 L6.00342821e-14,38.8888889" id="Stroke-75" stroke="#00293C"></path>
                    <path d="M35.1851852,17.5925926 L35.1851852,3.7037037 C35.1851852,1.65833333 33.5268519,0 31.4814815,0 L14.8148148,0 C12.7694444,0 11.1111111,1.65833333 11.1111111,3.7037037 L11.1111111,10.0527778 C14.6740741,12.4472222 13.8212963,19.6472222 11.1111111,27.7777778 L11.1111111,38.8888889 C11.1111111,40.9342593 12.7694444,42.5925926 14.8148148,42.5925926 L29.8694444,42.5925926 L31.4814815,42.5925926 C33.5268519,42.5925926 35.1851852,40.9342593 35.1851852,38.8888889 L35.1851852,35.9537037" id="Stroke-77" stroke="#00293C"></path>
                    <path d="M27.7302778,42.5925926 C25.2321296,45.5305556 21.6793519,47.5435185 17.6534259,48.0324074 C16.3737963,48.187963 15.1691667,48.7194444 14.2580556,49.6314815 L13.8886111,50" id="Stroke-79" stroke="#00293C"></path>
                    <path d="M25.9259259,16.6666667 L22.2222222,16.6666667 C21.2,16.6666667 20.3703704,17.4962963 20.3703704,18.5185185 C20.3703704,19.5407407 21.2,20.3703704 22.2222222,20.3703704 L24.0740741,20.3703704 C25.0962963,20.3703704 25.9259259,21.2 25.9259259,22.2222222 C25.9259259,23.2444444 25.0962963,24.0740741 24.0740741,24.0740741 L20.3703704,24.0740741" id="Stroke-81" stroke="#00C7BE"></path>
                    <line x1="23.1481481" y1="13.8888889" x2="23.1481481" y2="16.6666667" id="Stroke-83" stroke="#00C7BE"></line>
                    <line x1="23.1481481" y1="24.0740741" x2="23.1481481" y2="26.8518519" id="Stroke-85" stroke="#00C7BE"></line>
                </g>
            </g>
        </g>
    </g>
</svg>