<?xml version="1.0" encoding="UTF-8"?>
<svg width="64px" height="64px" viewBox="0 0 64 64" version="1.1" xmlns="http://www.w3.org/2000/svg" xmlns:xlink="http://www.w3.org/1999/xlink">
    <title>badge-twitter</title>
    <g id="(DEV)-Assets" stroke="none" stroke-width="1" fill="none" fill-rule="evenodd">
        <g id="badge-twitter" fill="#00C7BE" fill-rule="nonzero">
            <path d="M32,0 C14.3295899,0 0,14.3295899 0,32 C0,49.6704101 14.3295899,64 32,64 C49.6704101,64 64,49.6704101 64,32 C64,14.3295899 49.6704101,0 32,0 Z M46.6108399,24.9501953 C46.625,25.2651368 46.631836,25.581543 46.631836,25.899414 C46.631836,35.6049805 39.2441406,46.796875 25.7338867,46.7973633 L25.734375,46.7973633 L25.7338867,46.7973633 C21.5859375,46.7973633 17.7260742,45.581543 14.475586,43.4980469 C15.050293,43.565918 15.6352539,43.5996094 16.227539,43.5996094 C19.6689453,43.5996094 22.8359375,42.4257812 25.3500976,40.4555664 C22.1347656,40.3959961 19.4238281,38.272461 18.4882812,35.3540039 C18.9360351,35.4399414 19.3964844,35.4868164 19.8686524,35.4868164 C20.5390625,35.4868164 21.1884765,35.3964844 21.805664,35.2280274 C18.4448242,34.5551758 15.913086,31.584961 15.913086,28.0283203 C15.913086,27.9951173 15.913086,27.965332 15.9140625,27.9345703 C16.9038086,28.4848633 18.0356445,28.815918 19.2407226,28.8530274 C17.2685547,27.5371094 15.972168,25.2875976 15.972168,22.7392578 C15.972168,21.3935548 16.3359375,20.1328125 16.9667969,19.0473633 C20.5888672,23.4916993 26.0019531,26.4145508 32.1064453,26.7216798 C31.9804688,26.1835938 31.9155274,25.6230469 31.9155274,25.046875 C31.9155274,20.9921875 35.2050781,17.7026368 39.2612305,17.7026368 C41.3740235,17.7026368 43.2822265,18.5957031 44.6225586,20.0234375 C46.2958985,19.6933594 47.8671875,19.0820313 49.2866211,18.2407226 C48.7373047,19.9550781 47.5732422,21.3935548 46.0566406,22.3032226 C47.5424805,22.1254883 48.9584961,21.7314453 50.274414,21.1464844 C49.2915039,22.6196289 48.0449219,23.9135743 46.6108399,24.9501953 Z" id="Shape"></path>
        </g>
    </g>
</svg>