<svg xmlns="http://www.w3.org/2000/svg" width="44" height="52" viewBox="0 0 44 52">
  <g id="Group_29" data-name="Group 29" transform="translate(1 1)">
    <g id="Group_23" data-name="Group 23">
      <path id="Stroke_1" data-name="Stroke 1" d="M0,.463H4" transform="translate(19 38.426)" fill="none" stroke="#37464c" stroke-linecap="round" stroke-linejoin="round" stroke-miterlimit="10" stroke-width="2"/>
      <path id="Stroke_2" data-name="Stroke 2" d="M.5.463h0" transform="translate(20.5 3.241)" fill="none" stroke="#37464c" stroke-linecap="round" stroke-linejoin="round" stroke-miterlimit="10" stroke-width="2"/>
      <g id="Group_22" data-name="Group 22">
        <path id="Stroke_4" data-name="Stroke 4" d="M6,6.454a3.716,3.716,0,0,1-4.971,0,3.088,3.088,0,0,1,0-4.6L2,.953a3.716,3.716,0,0,1,4.971,0,3.087,3.087,0,0,1,0,4.6Z" transform="translate(32 31.481)" fill="none" stroke="#00293c" stroke-linecap="round" stroke-linejoin="round" stroke-miterlimit="10" stroke-width="2"/>
        <path id="Stroke_6" data-name="Stroke 6" d="M6,6.454a3.716,3.716,0,0,1-4.971,0,3.088,3.088,0,0,1,0-4.6L2,.953a3.716,3.716,0,0,1,4.971,0,3.087,3.087,0,0,1,0,4.6Z" transform="translate(32 24.074)" fill="none" stroke="#00293c" stroke-linecap="round" stroke-linejoin="round" stroke-miterlimit="10" stroke-width="2"/>
        <path id="Stroke_8" data-name="Stroke 8" d="M6,6.454a3.716,3.716,0,0,1-4.971,0,3.088,3.088,0,0,1,0-4.6L2,.953a3.716,3.716,0,0,1,4.971,0,3.087,3.087,0,0,1,0,4.6Z" transform="translate(32 16.667)" fill="none" stroke="#00293c" stroke-linecap="round" stroke-linejoin="round" stroke-miterlimit="10" stroke-width="2"/>
        <path id="Stroke_10" data-name="Stroke 10" d="M0,2.805,2,.953a3.716,3.716,0,0,1,4.971,0,3.088,3.088,0,0,1,0,4.6L0,12.01" transform="translate(34 5.555)" fill="none" stroke="#00293c" stroke-linecap="round" stroke-linejoin="round" stroke-miterlimit="10" stroke-width="2"/>
        <path id="Stroke_12" data-name="Stroke 12" d="M26,17.619V3.7A3.861,3.861,0,0,0,22,0H4A3.861,3.861,0,0,0,0,3.7V38.889a3.861,3.861,0,0,0,4,3.7H22a3.861,3.861,0,0,0,4-3.7v-.332" transform="translate(8 0)" fill="none" stroke="#00293c" stroke-linecap="round" stroke-linejoin="round" stroke-miterlimit="10" stroke-width="2"/>
        <path id="Stroke_14" data-name="Stroke 14" d="M6,6.454a3.716,3.716,0,0,1-4.971,0,3.088,3.088,0,0,1,0-4.6L2,.953a3.716,3.716,0,0,1,4.971,0,3.087,3.087,0,0,1,0,4.6Z" transform="translate(32 31.481)" fill="none" stroke="#00293c" stroke-linecap="round" stroke-linejoin="round" stroke-miterlimit="10" stroke-width="2"/>
        <path id="Stroke_16" data-name="Stroke 16" d="M30,29.63H12a3.861,3.861,0,0,1-4-3.7V5.556A5.792,5.792,0,0,0,2,0,1.931,1.931,0,0,0,0,1.852V25c0,6.648,7.163,12.037,16,12.037,6.692,0,12.419-3.094,14.807-7.482A4.366,4.366,0,0,1,30,29.63Z" transform="translate(0 12.963)" fill="none" stroke="#00293c" stroke-linecap="round" stroke-linejoin="round" stroke-miterlimit="10" stroke-width="2"/>
        <path id="Stroke_18" data-name="Stroke 18" d="M0,.463H26" transform="translate(8 6.944)" fill="none" stroke="#00293c" stroke-linejoin="round" stroke-miterlimit="10" stroke-width="2"/>
        <path id="Stroke_20" data-name="Stroke 20" d="M24.047.463H0" transform="translate(8 34.722)" fill="none" stroke="#00293c" stroke-linejoin="round" stroke-miterlimit="10" stroke-width="2"/>
      </g>
    </g>
    <g id="Group_24" data-name="Group 24" transform="translate(12.027 10.808)">
      <path id="Fill_22" data-name="Fill 22" d="M8,0,0,17.1l5.459-1.847L8,20.37l2.541-5.122L16,17.1Z" transform="translate(0.973 0.303)" fill="none" stroke="#00c7be" stroke-linejoin="round" stroke-miterlimit="10" stroke-width="2"/>
    </g>
  </g>
</svg>
