<?xml version="1.0" encoding="UTF-8"?>
<svg width="64px" height="64px" viewBox="0 0 64 64" version="1.1" xmlns="http://www.w3.org/2000/svg" xmlns:xlink="http://www.w3.org/1999/xlink">
    <title>icon-dark-truck</title>
    <defs>
        <rect id="path-1" x="0" y="0" width="64" height="64"></rect>
    </defs>
    <g id="(DEV)-Assets" stroke="none" stroke-width="1" fill="none" fill-rule="evenodd">
        <g id="icon-dark-truck">
            <mask id="mask-2" fill="white">
                <use xlink:href="#path-1"></use>
            </mask>
            <g id="Mask"></g>
            <g id="icon-truck" mask="url(#mask-2)" stroke-linejoin="round" stroke-width="2">
                <g transform="translate(5.000000, 13.000000)" id="Path">
                    <line x1="50" y1="26" x2="54" y2="26" stroke="#00293C" stroke-linecap="round"></line>
                    <path d="M34,30 L34,3 C34,1.34 32.66,0 31,0 L3,0 C1.34,0 0,1.34 0,3 L0,31 C0,32.66 1.34,34 3,34 L8.1,34" stroke="#00293C" stroke-linecap="round"></path>
                    <path d="M50,18 L44.83,7.66 C44.32,6.64 43.28,6 42.15,6 L34,6" stroke="#00293C"></path>
                    <path d="M47.9,34 L52,34 C53.1,34 54,33.1 54,32 L54,22 C54,19.79 52.21,18 50,18 L38,18" stroke="#00293C" stroke-linecap="round"></path>
                    <line x1="17.8999" y1="34" x2="38.0999" y2="34" stroke="#00293C"></line>
                    <path d="M13,38 C15.7614,38 18,35.7614 18,33 C18,30.2386 15.7614,28 13,28 C10.2386,28 8,30.2386 8,33 C8,35.7614 10.2386,38 13,38 Z" stroke="#00C7BE"></path>
                    <path d="M43,38 C45.7614,38 48,35.7614 48,33 C48,30.2386 45.7614,28 43,28 C40.2386,28 38,30.2386 38,33 C38,35.7614 40.2386,38 43,38 Z" stroke="#00C7BE"></path>
                </g>
            </g>
        </g>
    </g>
</svg>