<svg xmlns="http://www.w3.org/2000/svg" width="37.185" height="52" viewBox="0 0 37.185 52">
  <g id="Group" transform="translate(1 1)">
    <path id="Path" d="M31.481,0a3.7,3.7,0,0,1,3.7,3.7V38.889a3.7,3.7,0,0,1-3.7,3.7H3.7a3.7,3.7,0,0,1-3.7-3.7V3.7A3.7,3.7,0,0,1,3.7,0" transform="translate(0 7.407)" fill="none" stroke="#00293c" stroke-linecap="round" stroke-linejoin="round" stroke-miterlimit="10" stroke-width="2"/>
    <path id="Path-2" data-name="Path" d="M.926,1.852A.926.926,0,1,0,0,.926.926.926,0,0,0,.926,1.852Z" transform="translate(16.667 3.704)" fill="none" stroke="#00293c" stroke-linecap="round" stroke-linejoin="round" stroke-miterlimit="10" stroke-width="2"/>
    <path id="Path-3" data-name="Path" d="M10.185,0a4.64,4.64,0,0,1,4.491,3.481,1.835,1.835,0,0,0,1.481,1.37l2.667.444A1.857,1.857,0,0,1,20.37,7.12V9.259a1.857,1.857,0,0,1-1.852,1.852H1.852A1.857,1.857,0,0,1,0,9.259V7.12A1.85,1.85,0,0,1,1.546,5.3l2.667-.444a1.835,1.835,0,0,0,1.481-1.37A4.64,4.64,0,0,1,10.185,0Z" transform="translate(7.407)" fill="none" stroke="#00293c" stroke-linejoin="round" stroke-miterlimit="10" stroke-width="2"/>
    <path id="Path-4" data-name="Path" d="M12.037,24.074A12.037,12.037,0,1,0,0,12.037,12.037,12.037,0,0,0,12.037,24.074Z" transform="translate(5.556 16.667)" fill="none" stroke="#00293c" stroke-linejoin="round" stroke-miterlimit="10" stroke-width="2"/>
    <path id="Path-5" data-name="Path" d="M11.111,0l-3.7,3.7-3.7,3.7L0,3.7" transform="translate(12.037 25)" fill="none" stroke="#00c7be" stroke-linecap="round" stroke-linejoin="round" stroke-miterlimit="10" stroke-width="2"/>
  </g>
</svg>
