<svg xmlns="http://www.w3.org/2000/svg" xmlns:xlink="http://www.w3.org/1999/xlink" width="56.001" height="52" viewBox="0 0 56.001 52">
  <defs>
    <clipPath id="clip-path">
      <path id="Clip_6" data-name="Clip 6" d="M0,52H56V0H0Z" fill="none"/>
    </clipPath>
  </defs>
  <g id="Group_14" data-name="Group 14" transform="translate(0.001)">
    <path id="Stroke_1" data-name="Stroke 1" d="M5.436,10.924,4.244,1.852A2.129,2.129,0,0,0,2.132,0h0A2.13,2.13,0,0,0,0,2.13V17.343a4,4,0,0,0,1.172,2.828l8.243,8.243A2,2,0,0,1,10,29.828V30" transform="translate(0.999 15)" fill="none" stroke="#00293c" stroke-linecap="round" stroke-linejoin="round" stroke-miterlimit="10" stroke-width="2"/>
    <path id="Stroke_3" data-name="Stroke 3" d="M20.228,19.2V15.379a8.947,8.947,0,0,0-7.112-8.8A18.031,18.031,0,0,0,11.2,6.3a4.019,4.019,0,0,1-2.49-1.15L4.369.8A2.6,2.6,0,0,0,.924.531,2.5,2.5,0,0,0,.732,4.24L7.693,11.2" transform="translate(4.772 25.8)" fill="none" stroke="#00293c" stroke-linecap="round" stroke-linejoin="round" stroke-miterlimit="10" stroke-width="2"/>
    <path id="Clip_6-2" data-name="Clip 6" d="M0,52H56V0H0Z" fill="none"/>
    <g id="Group_14-2" data-name="Group 14" clip-path="url(#clip-path)">
      <path id="Stroke_5" data-name="Stroke 5" d="M0,6H16V0H0Z" transform="translate(9 45)" fill="none" stroke="#00293c" stroke-linecap="round" stroke-linejoin="round" stroke-miterlimit="10" stroke-width="2"/>
      <path id="Stroke_7" data-name="Stroke 7" d="M0,6H16V0H0Z" transform="translate(31 45)" fill="none" stroke="#00293c" stroke-linecap="round" stroke-linejoin="round" stroke-miterlimit="10" stroke-width="2"/>
      <path id="Stroke_8" data-name="Stroke 8" d="M4.564,10.924,5.756,1.852A2.129,2.129,0,0,1,7.868,0h0A2.13,2.13,0,0,1,10,2.13V17.343a4,4,0,0,1-1.172,2.828L.585,28.414A2,2,0,0,0,0,29.828V30" transform="translate(45 15)" fill="none" stroke="#00293c" stroke-linecap="round" stroke-linejoin="round" stroke-miterlimit="10" stroke-width="2"/>
      <path id="Stroke_9" data-name="Stroke 9" d="M0,19.2V15.379a8.947,8.947,0,0,1,7.112-8.8A18.031,18.031,0,0,1,9.024,6.3a4.019,4.019,0,0,0,2.49-1.15L15.859.8A2.6,2.6,0,0,1,19.3.531,2.5,2.5,0,0,1,19.5,4.24L12.535,11.2" transform="translate(31 25.8)" fill="none" stroke="#00293c" stroke-linecap="round" stroke-linejoin="round" stroke-miterlimit="10" stroke-width="2"/>
      <path id="Stroke_10" data-name="Stroke 10" d="M30,15A15,15,0,1,1,15,0,15,15,0,0,1,30,15Z" transform="translate(13 1)" fill="none" stroke="#00293c" stroke-linecap="round" stroke-linejoin="round" stroke-miterlimit="10" stroke-width="2"/>
      <path id="Stroke_11" data-name="Stroke 11" d="M6,0H2A2,2,0,0,0,2,4H4A2,2,0,0,1,4,8H0" transform="translate(25 12)" fill="none" stroke="#00c7be" stroke-linecap="round" stroke-linejoin="round" stroke-miterlimit="10" stroke-width="2"/>
      <path id="Stroke_12" data-name="Stroke 12" d="M.5,0V3" transform="translate(27.5 9)" fill="none" stroke="#00c7be" stroke-linecap="round" stroke-linejoin="round" stroke-miterlimit="10" stroke-width="2"/>
      <path id="Stroke_13" data-name="Stroke 13" d="M.5,0V3" transform="translate(27.5 20)" fill="none" stroke="#00c7be" stroke-linecap="round" stroke-linejoin="round" stroke-miterlimit="10" stroke-width="2"/>
    </g>
  </g>
</svg>
