<?xml version="1.0" encoding="UTF-8"?>
<svg width="64px" height="64px" viewBox="0 0 64 64" version="1.1" xmlns="http://www.w3.org/2000/svg" xmlns:xlink="http://www.w3.org/1999/xlink">
    <title>icon-dark-tools</title>
    <defs>
        <rect id="path-1" x="0" y="0" width="64" height="64"></rect>
    </defs>
    <g id="(DEV)-Assets" stroke="none" stroke-width="1" fill="none" fill-rule="evenodd">
        <g id="icon-dark-tools">
            <mask id="mask-2" fill="white">
                <use xlink:href="#path-1"></use>
            </mask>
            <g id="Mask"></g>
            <g id="icon-tools" mask="url(#mask-2)" stroke-linejoin="round" stroke-width="2">
                <g transform="translate(5.000000, 9.000000)" id="Path">
                    <line x1="30" y1="19" x2="22" y2="11" stroke="#00293C" stroke-linecap="round"></line>
                    <path d="M30.5,33.5 L41.55,44.55 C43.48,46.48 46.62,46.48 48.55,44.55 C50.48,42.62 50.48,39.48 48.55,37.55 L33,22" stroke="#00293C" stroke-linecap="round"></path>
                    <polygon stroke="#00293C" points="29 0 31 2 8 25 0 17 17 0"></polygon>
                    <line x1="21" y1="24" x2="15" y2="18" stroke="#00293C" stroke-linecap="round"></line>
                    <path d="M28.4999,23.5002 C26.5699,21.5702 23.4299,21.5702 21.4999,23.5002 L7.44994,37.5502 C5.51994,39.4802 5.51994,42.6202 7.44994,44.5502 C9.3799,46.4802 12.5199,46.4802 14.4499,44.5502 L28.4999,30.5002 C30.4299,28.5702 30.4299,25.4302 28.4999,23.5002 Z" stroke="#00C7BE"></path>
                    <line x1="25" y1="27" x2="11" y2="41" stroke="#00C7BE" stroke-linecap="round"></line>
                    <polyline stroke="#00C7BE" points="29.6499 25.35 41.9999 13 44.9999 13 49.9999 5 46.9999 2 38.9999 7 38.9999 10 26.6499 22.35"></polyline>
                </g>
            </g>
        </g>
    </g>
</svg>