<?xml version="1.0" encoding="UTF-8"?>
<svg width="64px" height="64px" viewBox="0 0 64 64" version="1.1" xmlns="http://www.w3.org/2000/svg" xmlns:xlink="http://www.w3.org/1999/xlink">
    <title>badge-facebook</title>
    <g id="(DEV)-Assets" stroke="none" stroke-width="1" fill="none" fill-rule="evenodd">
        <g id="badge-facebook" fill="#00C7BE" fill-rule="nonzero">
            <path d="M31.9348571,0.132952381 C14.2979048,0.132952381 0,14.4308571 0,32.0678095 C0,47.8860952 11.5131429,60.9862857 26.6087619,63.5230476 L26.6087619,38.7302857 L18.9051429,38.7302857 L18.9051429,29.808381 L26.6087619,29.808381 L26.6087619,23.2297143 C26.6087619,15.5965714 31.2708571,11.4369524 38.0811429,11.4369524 C41.3428571,11.4369524 44.1459048,11.68 44.959619,11.7870476 L44.959619,19.7657143 L40.2361905,19.768 C36.5333333,19.768 35.8194286,21.5272381 35.8194286,24.1097143 L35.8194286,29.8038095 L44.6548571,29.8038095 L43.5024762,38.7257143 L35.8194286,38.7257143 L35.8194286,63.736381 C51.6198095,61.8133333 63.8693333,48.3794286 63.8693333,32.0586667 C63.8693333,14.4308571 49.5714286,0.132952381 31.9348571,0.132952381 Z" id="Path"></path>
        </g>
    </g>
</svg>