<?xml version="1.0" encoding="UTF-8"?>
<svg width="64px" height="64px" viewBox="0 0 64 64" version="1.1" xmlns="http://www.w3.org/2000/svg" xmlns:xlink="http://www.w3.org/1999/xlink">
    <title>icon-dark-cash</title>
    <defs>
        <rect id="path-1" x="0" y="0" width="64" height="64"></rect>
    </defs>
    <g id="(DEV)-Assets" stroke="none" stroke-width="1" fill="none" fill-rule="evenodd">
        <g id="icon-dark-cash">
            <mask id="mask-2" fill="white">
                <use xlink:href="#path-1"></use>
            </mask>
            <g id="Mask"></g>
            <g id="icon-cash" mask="url(#mask-2)" stroke-linecap="round" stroke-linejoin="round" stroke-width="2">
                <g transform="translate(11.000000, 7.000000)" id="Path">
                    <path d="M14,43.9999 C19.03,43.9999 22.75,38.0699 23.87,33.9499 C24.05,33.2799 24.4,32.6699 24.89,32.1799 L31.88,25.1899 C33.25,23.8199 33.25,21.6099 31.88,20.2399 C30.51,18.8699 28.3,18.8699 26.93,20.2399 L19.8,27.3799 C19.72,27.4599 19.64,27.5299 19.55,27.5899 C18.54,28.3199 17.09,27.7199 16.69,26.5399 L16.26,25.2599" stroke="#00293C"></path>
                    <polyline stroke="#00293C" points="0 36 3 33 17 47 14 50"></polyline>
                    <path d="M16,16 L11.58,16 C9.74,16 8.13,17.25 7.69,19.04 L4,34" stroke="#00293C"></path>
                    <path d="M22.5,44 L41,44 C41.55,44 42,43.55 42,43 L42,1 C42,0.45 41.55,0 41,0 L17,0 C16.45,0 16,0.45 16,1 L16,21" stroke="#00293C"></path>
                    <path d="M42,8 C37.58,8 34,4.42 34,0" stroke="#00293C"></path>
                    <path d="M16,8 C20.42,8 24,4.42 24,0" stroke="#00293C"></path>
                    <path d="M42,36 C37.58,36 34,39.58 34,44" stroke="#00293C"></path>
                    <path d="M32.4,30.33 C35.68,28.99 38,25.77 38,22 C38,17.03 33.97,13 29,13 C24.2,13 20.29,16.76 20.03,21.48" stroke="#00C7BE"></path>
                </g>
            </g>
        </g>
    </g>
</svg>