<?xml version="1.0" encoding="UTF-8"?>
<svg width="64px" height="64px" viewBox="0 0 64 64" version="1.1" xmlns="http://www.w3.org/2000/svg" xmlns:xlink="http://www.w3.org/1999/xlink">
    <title>icon-dark-checklist</title>
    <defs>
        <rect id="path-1" x="0" y="0" width="64" height="64"></rect>
    </defs>
    <g id="(DEV)-Assets" stroke="none" stroke-width="1" fill="none" fill-rule="evenodd">
        <g id="icon-dark-checklist">
            <mask id="mask-2" fill="white">
                <use xlink:href="#path-1"></use>
            </mask>
            <g id="Mask"></g>
            <g id="icon-checklist" mask="url(#mask-2)" stroke-linejoin="round" stroke-width="2">
                <g transform="translate(14.000000, 7.000000)">
                    <path d="M7.40740741,7.40740741 L3.7037037,7.40740741 C1.65833333,7.40740741 0,9.06574074 0,11.1111111 L0,46.2962963 C0,48.3416667 1.65833333,50 3.7037037,50 L31.4814815,50 C33.5268519,50 35.1851852,48.3416667 35.1851852,46.2962963 L35.1851852,11.1111111 C35.1851852,9.06574074 33.5268519,7.40740741 31.4814815,7.40740741 L27.7777778,7.40740741" id="Stroke-1" stroke="#00293C" stroke-linecap="round"></path>
                    <path d="M16.6666667,4.62962963 C16.6666667,4.11851852 17.0814815,3.7037037 17.5925926,3.7037037 C18.1037037,3.7037037 18.5185185,4.11851852 18.5185185,4.62962963 C18.5185185,5.14074074 18.1037037,5.55555556 17.5925926,5.55555556 C17.0814815,5.55555556 16.6666667,5.14074074 16.6666667,4.62962963 Z" id="Stroke-3" stroke="#00293C" stroke-linecap="round"></path>
                    <path d="M17.5925926,0 C19.7546296,0 21.5703704,1.48240741 22.0796296,3.48611111 C22.2601852,4.19537037 22.8407407,4.73240741 23.5638889,4.85277778 L26.2305556,5.29814815 C27.1231481,5.4462963 27.7777778,6.21944444 27.7777778,7.12407407 L27.7777778,11.1111111 C27.7777778,12.1333333 26.9481481,12.962963 25.9259259,12.962963 L9.25925926,12.962963 C8.23703704,12.962963 7.40740741,12.1333333 7.40740741,11.1111111 L7.40740741,7.12407407 C7.40740741,6.21944444 8.06203704,5.4462963 8.95462963,5.29814815 L11.6212963,4.85277778 C12.3444444,4.73240741 12.925,4.19537037 13.1055556,3.48611111 C13.6148148,1.48240741 15.4305556,0 17.5925926,0" id="Stroke-5" stroke="#00293C"></path>
                    <line x1="16.6666667" y1="31.4814815" x2="25.9259259" y2="31.4814815" id="Stroke-7" stroke="#00293C" stroke-linecap="round"></line>
                    <line x1="16.6666667" y1="22.2222222" x2="25.9259259" y2="22.2222222" id="Stroke-9" stroke="#00293C" stroke-linecap="round"></line>
                    <polyline id="Stroke-11" stroke="#00C7BE" stroke-linecap="round" points="11.1111111 18.5185185 9.25925926 20.3703704 7.40740741 22.2222222 5.55555556 20.3703704"></polyline>
                    <polyline id="Stroke-13" stroke="#00C7BE" stroke-linecap="round" points="11.1111111 37.037037 9.25925926 38.8888889 7.40740741 40.7407407 5.55555556 38.8888889"></polyline>
                    <polyline id="Stroke-15" stroke="#00C7BE" stroke-linecap="round" points="11.1111111 27.7777778 9.25925926 29.6296296 7.40740741 31.4814815 5.55555556 29.6296296"></polyline>
                    <line x1="16.6666667" y1="27.7777778" x2="29.6296296" y2="27.7777778" id="Stroke-17" stroke="#00293C" stroke-linecap="round"></line>
                    <line x1="16.6666667" y1="18.5185185" x2="29.6296296" y2="18.5185185" id="Stroke-19" stroke="#00293C" stroke-linecap="round"></line>
                    <line x1="16.6666667" y1="40.7407407" x2="25.9259259" y2="40.7407407" id="Stroke-21" stroke="#00293C" stroke-linecap="round"></line>
                    <line x1="16.6666667" y1="37.037037" x2="29.6296296" y2="37.037037" id="Stroke-23" stroke="#00293C" stroke-linecap="round"></line>
                </g>
            </g>
        </g>
    </g>
</svg>