<svg xmlns="http://www.w3.org/2000/svg" width="60" height="60" viewBox="0 0 60 60">
  <g id="Group_30" data-name="Group 30" transform="translate(1 1)">
    <path id="Stroke_1" data-name="Stroke 1" d="M17.652,8.826A8.826,8.826,0,1,1,8.826,0,8.826,8.826,0,0,1,17.652,8.826Z" transform="translate(7.565 15.13)" fill="none" stroke="#00293c" stroke-linejoin="round" stroke-miterlimit="10" stroke-width="2"/>
    <path id="Stroke_3" data-name="Stroke 3" d="M0,22.7V7.278A5.044,5.044,0,0,1,3.273,2.555L10.087,0l6.3,6.3L22.7,0l6.814,2.555a5.044,5.044,0,0,1,3.273,4.723V22.7" transform="translate(0 35.304)" fill="none" stroke="#00293c" stroke-linecap="round" stroke-linejoin="round" stroke-miterlimit="10" stroke-width="2"/>
    <path id="Stroke_5" data-name="Stroke 5" d="M.63,12.609V0" transform="translate(5.674 45.391)" fill="none" stroke="#00293c" stroke-linecap="round" stroke-linejoin="round" stroke-miterlimit="10" stroke-width="2"/>
    <path id="Stroke_7" data-name="Stroke 7" d="M.63,12.609V0" transform="translate(25.848 45.391)" fill="none" stroke="#00293c" stroke-linecap="round" stroke-linejoin="round" stroke-miterlimit="10" stroke-width="2"/>
    <path id="Stroke_9" data-name="Stroke 9" d="M10.087,32.783H20.174v7.565l7.565-7.565h5.043a5.044,5.044,0,0,0,5.043-5.043V5.043A5.044,5.044,0,0,0,32.783,0H5.043A5.044,5.044,0,0,0,0,5.043V15.992" transform="translate(20.174 0)" fill="none" stroke="#00293c" stroke-linecap="round" stroke-linejoin="round" stroke-miterlimit="10" stroke-width="2"/>
    <path id="Stroke_11" data-name="Stroke 11" d="M15.13,0,10.088,5.043,5.042,10.087,0,5.043" transform="translate(31.522 11.348)" fill="none" stroke="#00c7be" stroke-linecap="round" stroke-linejoin="round" stroke-miterlimit="10" stroke-width="2"/>
  </g>
</svg>
