<svg xmlns="http://www.w3.org/2000/svg" width="52" height="52" viewBox="0 0 52 52">
  <g id="Group_53" data-name="Group 53" transform="translate(-83.5 -49)">
    <path id="Path" d="M0,0,5.64,2.05" transform="translate(127.35 86.5)" fill="none" stroke="#00c7be" stroke-linecap="round" stroke-linejoin="round" stroke-miterlimit="10" stroke-width="2"/>
    <path id="Path-2" data-name="Path" d="M0,0,5.64,2.05" transform="translate(86.01 71.45)" fill="none" stroke="#00c7be" stroke-linecap="round" stroke-linejoin="round" stroke-miterlimit="10" stroke-width="2"/>
    <path id="Path-3" data-name="Path" d="M0,0,4.6,3.86" transform="translate(124.05 92.21)" fill="none" stroke="#00c7be" stroke-linecap="round" stroke-linejoin="round" stroke-miterlimit="10" stroke-width="2"/>
    <path id="Path-4" data-name="Path" d="M0,0,4.6,3.86" transform="translate(90.35 63.93)" fill="none" stroke="#00c7be" stroke-linecap="round" stroke-linejoin="round" stroke-miterlimit="10" stroke-width="2"/>
    <path id="Path-5" data-name="Path" d="M4.6,0,0,3.86" transform="translate(90.35 92.21)" fill="none" stroke="#00c7be" stroke-linecap="round" stroke-linejoin="round" stroke-miterlimit="10" stroke-width="2"/>
    <path id="Path-6" data-name="Path" d="M4.6,0,0,3.86" transform="translate(124.05 63.93)" fill="none" stroke="#00c7be" stroke-linecap="round" stroke-linejoin="round" stroke-miterlimit="10" stroke-width="2"/>
    <path id="Path-7" data-name="Path" d="M5.64,0,0,2.05" transform="translate(86.01 86.5)" fill="none" stroke="#00c7be" stroke-linecap="round" stroke-linejoin="round" stroke-miterlimit="10" stroke-width="2"/>
    <path id="Path-8" data-name="Path" d="M5.64,0,0,2.05" transform="translate(127.35 71.45)" fill="none" stroke="#00c7be" stroke-linecap="round" stroke-linejoin="round" stroke-miterlimit="10" stroke-width="2"/>
    <path id="Path-9" data-name="Path" d="M6,.5H0" transform="translate(84.5 79.5)" fill="none" stroke="#00c7be" stroke-linecap="round" stroke-linejoin="round" stroke-miterlimit="10" stroke-width="2"/>
    <path id="Path-10" data-name="Path" d="M6,.5H0" transform="translate(128.5 79.5)" fill="none" stroke="#00c7be" stroke-linecap="round" stroke-linejoin="round" stroke-miterlimit="10" stroke-width="2"/>
    <path id="Path-11" data-name="Path" d="M.5,0V18" transform="translate(109 82)" fill="none" stroke="#15234c" stroke-linecap="round" stroke-linejoin="round" stroke-miterlimit="10" stroke-width="2"/>
    <path id="Path-12" data-name="Path" d="M37.415.585a2,2,0,0,0-2.83,0L19,16,3.415.585a2,2,0,0,0-2.83,2.83L13,15.935V48a1,1,0,0,0,1,1H24a1,1,0,0,0,1-1V15.935L37.415,3.4A1.974,1.974,0,0,0,37.415.585Z" transform="translate(90.495 51.005)" fill="none" stroke="#00293c" stroke-linecap="round" stroke-linejoin="round" stroke-miterlimit="10" stroke-width="2"/>
    <path id="Path-13" data-name="Path" d="M5,10A5,5,0,1,0,0,5,5,5,0,0,0,5,10Z" transform="translate(104.5 50)" fill="none" stroke="#00293c" stroke-linejoin="round" stroke-miterlimit="10" stroke-width="2"/>
  </g>
</svg>
