<svg xmlns="http://www.w3.org/2000/svg" width="59.522" height="56" viewBox="0 0 59.522 56">
  <g id="Group_6_Copy" data-name="Group 6 Copy" transform="translate(1 1)">
    <path id="Stroke_39" data-name="Stroke 39" d="M6.9,0H2.3A2.326,2.326,0,0,0,0,2.348,2.326,2.326,0,0,0,2.3,4.7H4.6a2.348,2.348,0,0,1,0,4.7H0" transform="translate(25.31 11.739)" fill="none" stroke="#00c7be" stroke-linecap="round" stroke-linejoin="round" stroke-miterlimit="10" stroke-width="2"/>
    <path id="Stroke_41" data-name="Stroke 41" d="M.575,0V2.348" transform="translate(28.186 9.391)" fill="none" stroke="#00c7be" stroke-linecap="round" stroke-linejoin="round" stroke-miterlimit="10" stroke-width="2"/>
    <path id="Stroke_43" data-name="Stroke 43" d="M.575,0V2.348" transform="translate(28.186 21.13)" fill="none" stroke="#00c7be" stroke-linecap="round" stroke-linejoin="round" stroke-miterlimit="10" stroke-width="2"/>
    <path id="Stroke_45" data-name="Stroke 45" d="M0,.587H9.2" transform="translate(36.814 15.848)" fill="none" stroke="#00293c" stroke-linecap="round" stroke-linejoin="round" stroke-miterlimit="10" stroke-width="2"/>
    <path id="Stroke_47" data-name="Stroke 47" d="M0,.587H9.2" transform="translate(36.814 22.891)" fill="none" stroke="#00293c" stroke-linecap="round" stroke-linejoin="round" stroke-miterlimit="10" stroke-width="2"/>
    <path id="Stroke_49" data-name="Stroke 49" d="M0,.587H9.2" transform="translate(36.814 8.804)" fill="none" stroke="#00293c" stroke-linecap="round" stroke-linejoin="round" stroke-miterlimit="10" stroke-width="2"/>
    <path id="Stroke_51" data-name="Stroke 51" d="M0,.587H20.708" transform="translate(25.31 29.935)" fill="none" stroke="#00293c" stroke-linecap="round" stroke-linejoin="round" stroke-miterlimit="10" stroke-width="2"/>
    <path id="Stroke_53" data-name="Stroke 53" d="M0,.587H9.2" transform="translate(36.814 36.978)" fill="none" stroke="#00293c" stroke-linecap="round" stroke-linejoin="round" stroke-miterlimit="10" stroke-width="2"/>
    <path id="Stroke_55" data-name="Stroke 55" d="M9.2,54a4.65,4.65,0,0,1-4.6-4.7V4.7A4.65,4.65,0,0,0,0,0H34.513a4.65,4.65,0,0,1,4.6,4.7V42.261" transform="translate(13.805)" fill="none" stroke="#00293c" stroke-linecap="round" stroke-linejoin="round" stroke-miterlimit="10" stroke-width="2"/>
    <path id="Stroke_57" data-name="Stroke 57" d="M9.2,37.565H0a4.65,4.65,0,0,0,4.6-4.7V4.7A4.65,4.65,0,0,1,9.2,0" transform="translate(4.602)" fill="none" stroke="#00293c" stroke-linecap="round" stroke-linejoin="round" stroke-miterlimit="10" stroke-width="2"/>
    <path id="Stroke_59" data-name="Stroke 59" d="M4.6,23.478h0a4.65,4.65,0,0,1-4.6-4.7V0H4.6" transform="translate(0 14.087)" fill="none" stroke="#00293c" stroke-linecap="round" stroke-linejoin="round" stroke-miterlimit="10" stroke-width="2"/>
    <path id="Stroke_61" data-name="Stroke 61" d="M34.513,2.348a4.65,4.65,0,0,1-4.6,4.7H0a4.65,4.65,0,0,0,4.6-4.7V0H34.513Z" transform="translate(23.009 46.957)" fill="none" stroke="#00293c" stroke-linecap="round" stroke-linejoin="round" stroke-miterlimit="10" stroke-width="2"/>
  </g>
</svg>
