<svg xmlns="http://www.w3.org/2000/svg" width="44" height="56" viewBox="0 0 44 56">
  <g id="Group_29" data-name="Group 29" transform="translate(1 1)">
    <g id="Group_23" data-name="Group 23">
      <path id="Stroke_1" data-name="Stroke 1" d="M0,.5H4" transform="translate(19 41.5)" fill="none" stroke="#37464c" stroke-linecap="round" stroke-linejoin="round" stroke-miterlimit="10" stroke-width="2"/>
      <path id="Stroke_2" data-name="Stroke 2" d="M.5.5h0" transform="translate(20.5 3.5)" fill="none" stroke="#37464c" stroke-linecap="round" stroke-linejoin="round" stroke-miterlimit="10" stroke-width="2"/>
      <g id="Group_22" data-name="Group 22">
        <path id="Stroke_4" data-name="Stroke 4" d="M6,6.971A3.515,3.515,0,0,1,1.029,2L2,1.03A3.515,3.515,0,0,1,6.971,6Z" transform="translate(32 34)" fill="none" stroke="#00293c" stroke-linecap="round" stroke-linejoin="round" stroke-miterlimit="10" stroke-width="2"/>
        <path id="Stroke_6" data-name="Stroke 6" d="M6,6.971A3.515,3.515,0,0,1,1.029,2L2,1.03A3.515,3.515,0,0,1,6.971,6Z" transform="translate(32 26)" fill="none" stroke="#00293c" stroke-linecap="round" stroke-linejoin="round" stroke-miterlimit="10" stroke-width="2"/>
        <path id="Stroke_8" data-name="Stroke 8" d="M6,6.971A3.515,3.515,0,0,1,1.029,2L2,1.03A3.515,3.515,0,0,1,6.971,6Z" transform="translate(32 18)" fill="none" stroke="#00293c" stroke-linecap="round" stroke-linejoin="round" stroke-miterlimit="10" stroke-width="2"/>
        <path id="Stroke_10" data-name="Stroke 10" d="M0,3.03l2-2A3.515,3.515,0,0,1,6.971,6L0,12.971" transform="translate(34 6)" fill="none" stroke="#00293c" stroke-linecap="round" stroke-linejoin="round" stroke-miterlimit="10" stroke-width="2"/>
        <path id="Stroke_12" data-name="Stroke 12" d="M26,19.029V4a4,4,0,0,0-4-4H4A4,4,0,0,0,0,4V42a4,4,0,0,0,4,4H22a4,4,0,0,0,4-4v-.359" transform="translate(8 0)" fill="none" stroke="#00293c" stroke-linecap="round" stroke-linejoin="round" stroke-miterlimit="10" stroke-width="2"/>
        <path id="Stroke_14" data-name="Stroke 14" d="M6,6.971A3.515,3.515,0,0,1,1.029,2L2,1.03A3.515,3.515,0,0,1,6.971,6Z" transform="translate(32 34)" fill="none" stroke="#00293c" stroke-linecap="round" stroke-linejoin="round" stroke-miterlimit="10" stroke-width="2"/>
        <path id="Stroke_16" data-name="Stroke 16" d="M30,32H12a4,4,0,0,1-4-4V6A6,6,0,0,0,2,0,2,2,0,0,0,0,2V27c0,7.18,7.163,13,16,13,6.692,0,12.419-3.342,14.807-8.081A4.053,4.053,0,0,1,30,32Z" transform="translate(0 14)" fill="none" stroke="#00293c" stroke-linecap="round" stroke-linejoin="round" stroke-miterlimit="10" stroke-width="2"/>
        <path id="Stroke_18" data-name="Stroke 18" d="M0,.5H26" transform="translate(8 7.5)" fill="none" stroke="#00293c" stroke-linejoin="round" stroke-miterlimit="10" stroke-width="2"/>
        <path id="Stroke_20" data-name="Stroke 20" d="M24.047.5H0" transform="translate(8 37.5)" fill="none" stroke="#00293c" stroke-linejoin="round" stroke-miterlimit="10" stroke-width="2"/>
      </g>
    </g>
    <g id="Group_24" data-name="Group 24" transform="translate(12.027 11.672)">
      <path id="Fill_22" data-name="Fill 22" d="M8,0,0,18.463l5.459-2L8,22l2.541-5.532,5.459,2Z" transform="translate(0.973 0.328)" fill="none" stroke="#00c7be" stroke-linejoin="round" stroke-miterlimit="10" stroke-width="2"/>
    </g>
  </g>
</svg>
