<?xml version="1.0" encoding="UTF-8"?>
<svg width="64px" height="64px" viewBox="0 0 64 64" version="1.1" xmlns="http://www.w3.org/2000/svg" xmlns:xlink="http://www.w3.org/1999/xlink">
    <title>icon-dark-document-search</title>
    <defs>
        <rect id="path-1" x="0" y="0" width="64" height="64"></rect>
    </defs>
    <g id="(DEV)-Assets" stroke="none" stroke-width="1" fill="none" fill-rule="evenodd">
        <g id="icon-dark-document-search">
            <mask id="mask-2" fill="white">
                <use xlink:href="#path-1"></use>
            </mask>
            <g id="Mask"></g>
            <g id="icon-document-search" mask="url(#mask-2)" stroke-linejoin="round" stroke-width="2">
                <g transform="translate(11.000000, 7.000000)">
                    <path d="M10,0 L10,8 C10,9.104 9.104,10 8,10 L0,10" id="Stroke-1" stroke="#00293C" stroke-linecap="round"></path>
                    <path d="M38,40 L38,47 C38,48.657 36.657,50 35,50 L3,50 C1.343,50 0,48.657 0,47 L0,10 L10,0 L35,0 C36.657,0 38,1.343 38,3 L38,14" id="Stroke-3" stroke="#00293C" stroke-linecap="round"></path>
                    <path d="M29,34 C33.971,34 38,29.971 38,25 C38,20.029 33.971,16 29,16 C24.029,16 20,20.029 20,25 C20,29.971 24.029,34 29,34 Z" id="Stroke-5" stroke="#00C7BE"></path>
                    <line x1="42" y1="38" x2="35.365" y2="31.365" id="Stroke-7" stroke="#00C7BE" stroke-linecap="round"></line>
                    <line x1="6" y1="34" x2="18" y2="34" id="Stroke-9" stroke="#00293C" stroke-linecap="round"></line>
                    <line x1="6" y1="40" x2="32" y2="40" id="Stroke-11" stroke="#00293C" stroke-linecap="round"></line>
                    <line x1="14" y1="28" x2="6" y2="28" id="Stroke-13" stroke="#00293C" stroke-linecap="round"></line>
                    <line x1="14" y1="22" x2="6" y2="22" id="Stroke-15" stroke="#00293C" stroke-linecap="round"></line>
                    <line x1="18" y1="16" x2="6" y2="16" id="Stroke-17" stroke="#00293C" stroke-linecap="round"></line>
                </g>
            </g>
        </g>
    </g>
</svg>