<svg xmlns="http://www.w3.org/2000/svg" width="25.029" height="25.029" viewBox="0 0 25.029 25.029">
  <g id="Group_9_Copy" data-name="Group 9 Copy" transform="translate(0.529 0.5)">
    <path id="Stroke_1" data-name="Stroke 1" d="M0,0A10.667,10.667,0,0,1,10.667,10.667" transform="translate(13.333)" fill="none" stroke="#00c7be" stroke-linecap="round" stroke-linejoin="round" stroke-miterlimit="10" stroke-width="1"/>
    <path id="Stroke_3" data-name="Stroke 3" d="M0,0A8,8,0,0,1,8,8" transform="translate(13.333 2.667)" fill="none" stroke="#00c7be" stroke-linecap="round" stroke-linejoin="round" stroke-miterlimit="10" stroke-width="1"/>
    <path id="Stroke_5" data-name="Stroke 5" d="M0,0A5.333,5.333,0,0,1,5.333,5.333" transform="translate(13.333 5.333)" fill="none" stroke="#00c7be" stroke-linecap="round" stroke-linejoin="round" stroke-miterlimit="10" stroke-width="1"/>
    <path id="Stroke_7" data-name="Stroke 7" d="M5.559,15.774C.523,10.738-1.454,4.548,1.144,1.949A19.593,19.593,0,0,1,3.354.19,1.031,1.031,0,0,1,4.822.482l3.1,4.912a1.032,1.032,0,0,1-.343,1.436L5.76,7.918a1.031,1.031,0,0,0-.32,1.476,27.632,27.632,0,0,0,3.014,3.485,27.632,27.632,0,0,0,3.485,3.014,1.031,1.031,0,0,0,1.476-.32L14.5,13.758a1.032,1.032,0,0,1,1.436-.343l4.912,3.1a1.031,1.031,0,0,1,.292,1.468,19.5,19.5,0,0,1-1.76,2.209C16.785,22.788,10.6,20.811,5.559,15.774Z" transform="translate(0 2.667)" fill="none" stroke="#fff" stroke-linejoin="round" stroke-miterlimit="10" stroke-width="1"/>
  </g>
</svg>
