<?xml version="1.0" encoding="UTF-8"?>
<svg width="64px" height="64px" viewBox="0 0 64 64" version="1.1" xmlns="http://www.w3.org/2000/svg" xmlns:xlink="http://www.w3.org/1999/xlink">
    <title>icon-dark-document</title>
    <defs>
        <rect id="path-1" x="0" y="0" width="64" height="64"></rect>
    </defs>
    <g id="(DEV)-Assets" stroke="none" stroke-width="1" fill="none" fill-rule="evenodd">
        <g id="icon-dark-document">
            <mask id="mask-2" fill="white">
                <use xlink:href="#path-1"></use>
            </mask>
            <g id="Mask"></g>
            <g id="icon-document" mask="url(#mask-2)" stroke-linejoin="round" stroke-width="2">
                <g transform="translate(9.000000, 7.000000)">
                    <path d="M10,0 L10,8 C10,9.104 9.104,10 8,10 L0,10" id="Stroke-1" stroke="#00293C" stroke-linecap="round"></path>
                    <path d="M35,50 L3,50 C1.343,50 0,48.657 0,47 L0,10 L10,0 L35,0 C36.657,0 38,1.343 38,3 L38,4" id="Stroke-3" stroke="#00293C" stroke-linecap="round"></path>
                    <line x1="6" y1="36" x2="32" y2="36" id="Stroke-5" stroke="#00293C" stroke-linecap="round"></line>
                    <line x1="6" y1="42" x2="24" y2="42" id="Stroke-7" stroke="#00293C" stroke-linecap="round"></line>
                    <line x1="32" y1="30" x2="6" y2="30" id="Stroke-9" stroke="#00293C" stroke-linecap="round"></line>
                    <line x1="32" y1="24" x2="6" y2="24" id="Stroke-11" stroke="#00293C" stroke-linecap="round"></line>
                    <line x1="14" y1="18" x2="6" y2="18" id="Stroke-13" stroke="#00293C" stroke-linecap="round"></line>
                    <path d="M39,8 L39,8 C37.343,8 36,9.343 36,11 L36,42 C36,46 39,49 39,49 C39,49 42,46 42,42 L42,11 C42,9.343 40.657,8 39,8 Z" id="Stroke-15" stroke="#00293C"></path>
                    <path d="M36,14 L44,14 C45.104,14 46,14.896 46,16 L46,25.313" id="Stroke-17" stroke="#00293C" stroke-linecap="round"></path>
                    <line x1="42" y1="39" x2="36" y2="39" id="Stroke-19" stroke="#00293C"></line>
                    <line x1="39" y1="50" x2="39" y2="49" id="Stroke-21" stroke="#00293C" stroke-linecap="round"></line>
                    <path d="M28,8 L24,8 C22.896,8 22,8.896 22,10 C22,11.104 22.896,12 24,12 L26,12 C27.104,12 28,12.896 28,14 C28,15.104 27.104,16 26,16 L22,16" id="Stroke-23" stroke="#00C7BE" stroke-linecap="round"></path>
                    <line x1="25" y1="5" x2="25" y2="8" id="Stroke-25" stroke="#00C7BE" stroke-linecap="round"></line>
                    <line x1="25" y1="16" x2="25" y2="19" id="Stroke-27" stroke="#00C7BE" stroke-linecap="round"></line>
                </g>
            </g>
        </g>
    </g>
</svg>