<svg xmlns="http://www.w3.org/2000/svg" width="76.571" height="60" viewBox="0 0 76.571 60">
  <g id="Group_34" data-name="Group 34" transform="translate(1 1)">
    <path id="Stroke_1" data-name="Stroke 1" d="M0,30.381,17.952,12.429l8.286,8.286L37.286,9.667,42.81,15.19l6.9-6.9L44.19,2.762,63.524,0,60.762,19.333,55.238,13.81,42.81,26.238l-5.524-5.524L26.238,31.762l-8.286-8.286L2.762,38.667" transform="translate(11.048 2.762)" fill="none" stroke="#00c7be" stroke-linecap="round" stroke-linejoin="round" stroke-miterlimit="10" stroke-width="2"/>
    <path id="Stroke_3" data-name="Stroke 3" d="M0,0V58H66.286" transform="translate(5.524)" fill="none" stroke="#00293c" stroke-linecap="round" stroke-linejoin="round" stroke-miterlimit="10" stroke-width="2"/>
    <path id="Stroke_6" data-name="Stroke 6" d="M.69,0V24.857" transform="translate(62.833 27.619)" fill="none" stroke="#00293c" stroke-linecap="round" stroke-linejoin="round" stroke-miterlimit="10" stroke-width="2"/>
    <path id="Stroke_7" data-name="Stroke 7" d="M.69,0V24.857" transform="translate(71.119 27.619)" fill="none" stroke="#00293c" stroke-linecap="round" stroke-linejoin="round" stroke-miterlimit="10" stroke-width="2"/>
    <path id="Stroke_9" data-name="Stroke 9" d="M.69,0V17.952" transform="translate(54.548 34.524)" fill="none" stroke="#00293c" stroke-linecap="round" stroke-linejoin="round" stroke-miterlimit="10" stroke-width="2"/>
    <path id="Stroke_10" data-name="Stroke 10" d="M.69,0V19.333" transform="translate(46.262 33.143)" fill="none" stroke="#00293c" stroke-linecap="round" stroke-linejoin="round" stroke-miterlimit="10" stroke-width="2"/>
    <path id="Stroke_11" data-name="Stroke 11" d="M.69,0V12.429" transform="translate(37.976 40.048)" fill="none" stroke="#00293c" stroke-linecap="round" stroke-linejoin="round" stroke-miterlimit="10" stroke-width="2"/>
    <path id="Stroke_12" data-name="Stroke 12" d="M.69,0V16.571" transform="translate(29.69 35.905)" fill="none" stroke="#00293c" stroke-linecap="round" stroke-linejoin="round" stroke-miterlimit="10" stroke-width="2"/>
    <path id="Stroke_13" data-name="Stroke 13" d="M.69,0V11.048" transform="translate(21.405 41.429)" fill="none" stroke="#00293c" stroke-linecap="round" stroke-linejoin="round" stroke-miterlimit="10" stroke-width="2"/>
    <path id="Stroke_14" data-name="Stroke 14" d="M.69,0V5.524" transform="translate(13.119 46.952)" fill="none" stroke="#00293c" stroke-linecap="round" stroke-linejoin="round" stroke-miterlimit="10" stroke-width="2"/>
    <path id="Stroke_15" data-name="Stroke 15" d="M0,.69H5.524" transform="translate(0 7.595)" fill="none" stroke="#00293c" stroke-linecap="round" stroke-linejoin="round" stroke-miterlimit="10" stroke-width="2"/>
    <path id="Stroke_17" data-name="Stroke 17" d="M0,.69H5.524" transform="translate(0 15.881)" fill="none" stroke="#00293c" stroke-linecap="round" stroke-linejoin="round" stroke-miterlimit="10" stroke-width="2"/>
    <path id="Stroke_19" data-name="Stroke 19" d="M0,.69H5.524" transform="translate(0 24.167)" fill="none" stroke="#00293c" stroke-linecap="round" stroke-linejoin="round" stroke-miterlimit="10" stroke-width="2"/>
    <path id="Stroke_21" data-name="Stroke 21" d="M0,.69H5.524" transform="translate(0 32.452)" fill="none" stroke="#00293c" stroke-linecap="round" stroke-linejoin="round" stroke-miterlimit="10" stroke-width="2"/>
    <path id="Stroke_23" data-name="Stroke 23" d="M0,.69H5.524" transform="translate(0 40.738)" fill="none" stroke="#00293c" stroke-linecap="round" stroke-linejoin="round" stroke-miterlimit="10" stroke-width="2"/>
    <path id="Stroke_25" data-name="Stroke 25" d="M0,.69H5.524" transform="translate(0 49.024)" fill="none" stroke="#00293c" stroke-linecap="round" stroke-linejoin="round" stroke-miterlimit="10" stroke-width="2"/>
    <path id="Stroke_27" data-name="Stroke 27" d="M8.286,0H2.762a2.762,2.762,0,0,0,0,5.524H5.524a2.762,2.762,0,0,1,0,5.524H0" transform="translate(13.81 2.762)" fill="none" stroke="#00293c" stroke-linecap="round" stroke-linejoin="round" stroke-miterlimit="10" stroke-width="2"/>
    <path id="Stroke_29" data-name="Stroke 29" d="M.69,0V2.762" transform="translate(17.262 0)" fill="none" stroke="#00293c" stroke-linecap="round" stroke-linejoin="round" stroke-miterlimit="10" stroke-width="2"/>
    <path id="Stroke_31" data-name="Stroke 31" d="M.69,0V2.762" transform="translate(17.262 13.81)" fill="none" stroke="#00293c" stroke-linecap="round" stroke-linejoin="round" stroke-miterlimit="10" stroke-width="2"/>
  </g>
</svg>
