<?xml version="1.0" encoding="UTF-8"?>
<svg width="64px" height="64px" viewBox="0 0 64 64" version="1.1" xmlns="http://www.w3.org/2000/svg" xmlns:xlink="http://www.w3.org/1999/xlink">
    <title>badge-linkedin</title>
    <g id="(DEV)-Assets" stroke="none" stroke-width="1" fill="none" fill-rule="evenodd">
        <g id="badge-linkedin" fill="#00C7BE" fill-rule="nonzero">
            <path d="M32,0 C14.3295899,0 0,14.3295899 0,32 C0,49.6704101 14.3295899,64 32,64 C49.6704101,64 64,49.6704101 64,32 C64,14.3295899 49.6704101,0 32,0 Z M22.7011719,48.375 L14.9077149,48.375 L14.9077149,24.9282226 L22.7011719,24.9282226 L22.7011719,48.375 Z M18.8046875,21.7265625 L18.7539062,21.7265625 C16.1386719,21.7265625 14.4472656,19.9262695 14.4472656,17.6762695 C14.4472656,15.3754883 16.1904297,13.625 18.8564453,13.625 C21.522461,13.625 23.163086,15.3754883 23.2138672,17.6762695 C23.2138672,19.9262695 21.522461,21.7265625 18.8046875,21.7265625 Z M50.8027344,48.375 L43.0102539,48.375 L43.0102539,35.831543 C43.0102539,32.6791992 41.881836,30.5292969 39.0620118,30.5292969 C36.9091798,30.5292969 35.6269531,31.9794922 35.0634765,33.3793945 C34.8574219,33.8803711 34.8071289,34.5805664 34.8071289,35.28125 L34.8071289,48.375 L27.0141601,48.375 C27.0141601,48.375 27.116211,27.1279297 27.0141601,24.9282226 L34.8071289,24.9282226 L34.8071289,28.2480469 C35.8427735,26.6503906 37.6958008,24.3779297 41.8305664,24.3779297 C46.9580078,24.3779297 50.8027344,27.7290039 50.8027344,34.930664 L50.8027344,48.375 Z" id="Shape"></path>
        </g>
    </g>
</svg>