<?xml version="1.0" encoding="UTF-8"?>
<svg width="334px" height="50px" viewBox="0 0 334 50" version="1.1" xmlns="http://www.w3.org/2000/svg" xmlns:xlink="http://www.w3.org/1999/xlink">
    <title>logo-northmoney-dark</title>
    <defs>
        <polygon id="path-1" points="0.0773411919 0.142927308 28.3137525 0.142927308 28.3137525 36.6732155 0.0773411919 36.6732155"></polygon>
        <polygon id="path-3" points="0 0.2383759 33.7522593 0.2383759 33.7522593 47.6398166 0 47.6398166"></polygon>
    </defs>
    <g id="Assets" stroke="none" stroke-width="1" fill="none" fill-rule="evenodd">
        <g id="logo-northmoney-dark">
            <path d="M62.5546169,40.022757 L62.5546169,24.8184348 C62.5546169,21.1164047 61.2710544,19.3881794 58.259594,19.3881794 C54.9524558,19.3881794 53.5700065,21.214964 53.5700065,24.9169941 L53.5700065,40.022757 L45.3751801,40.022757 L45.3751801,12.6249181 L53.0267845,12.6249181 L53.0267845,15.5381467 L53.1253438,15.5381467 C54.8532417,12.7241323 57.2723641,11.6871316 60.5795023,11.6871316 C65.5163065,11.6871316 70.7491159,14.4520301 70.7491159,22.5476424 L70.7491159,40.022757 L62.5546169,40.022757 Z" id="Fill-1" fill="#00293C"></path>
            <path d="M94.1088736,26.2994106 C94.1088736,22.646169 91.34463,19.3884741 87.4942698,19.3884741 C83.8901441,19.3884741 80.9778978,22.5476097 80.9778978,26.2994106 C80.9778978,30.051539 83.8407007,33.2106745 87.5437132,33.2106745 C91.3940733,33.2106745 94.1088736,29.9523248 94.1088736,26.2994106 M87.5437132,40.8619515 C79.2005566,40.8619515 72.7833988,34.691683 72.7833988,26.2994106 C72.7833988,17.8089064 79.3492141,11.7365422 87.5437132,11.7365422 C95.7870007,11.7365422 102.303373,17.9074656 102.303373,26.2005239 C102.303373,34.7902423 95.7870007,40.8619515 87.5437132,40.8619515" id="Fill-3" fill="#00293C"></path>
            <path d="M104.523477,40.022757 L104.523477,12.6249181 L112.224525,12.6249181 L112.224525,15.5381467 L112.322757,15.5381467 C113.754977,12.6249181 117.568337,11.6871316 120.7278,11.6871316 L120.7278,19.9314014 C115.841094,19.9808448 112.717976,21.8073019 112.717976,24.9169941 L112.717976,40.022757 L104.523477,40.022757 Z" id="Fill-5" fill="#00293C"></path>
            <polygon id="Fill-7" fill="#00293C" points="123.821611 11.4750819 123.821611 3.49309103 132.01611 3.49309103 132.01611 11.4750819 138.386117 11.4750819 138.386117 19.9253111 132.01611 19.9253111 132.01611 40.022888 123.821611 40.022888 123.821611 19.9253111"></polygon>
            <path d="M158.545842,40.022757 L158.545842,24.9667649 C158.545842,21.4120825 157.163065,19.3881794 154.151932,19.3881794 C151.041912,19.3881794 149.561231,21.214964 149.561231,24.6213163 L149.561231,40.022757 L141.366405,40.022757 L141.366405,3.49296005 L149.561231,3.49296005 L149.561231,15.2414866 C150.746234,13.0201375 153.411264,11.6871316 156.669941,11.6871316 C162.939096,11.6871316 166.740341,15.6363785 166.740341,22.7948592 L166.740341,40.022757 L158.545842,40.022757 Z" id="Fill-9" fill="#00293C"></path>
            <path d="M207.429633,40.0723314 L207.429633,25.312017 C207.429633,21.0179764 206.047184,19.4377538 203.233497,19.4377538 C200.123805,19.4377538 198.691912,21.3139817 198.691912,24.91778 L198.691912,40.0723314 L190.497413,40.0723314 L190.497413,24.9665684 C190.497413,21.4122135 189.214178,19.4377538 186.400164,19.4377538 C183.191585,19.4377538 181.759692,21.5111002 181.759692,25.312017 L181.759692,40.0723314 L173.565193,40.0723314 L173.565193,12.6744925 L181.216798,12.6744925 L181.216798,15.587721 L181.315357,15.587721 C182.747577,13.0209234 185.363818,11.736706 188.868402,11.736706 C192.423084,11.736706 195.039325,13.5143746 196.766896,16.6240668 C198.741683,13.5143746 201.7037,11.736706 205.454846,11.736706 C211.576654,11.736706 215.624132,15.4885069 215.624132,23.1401113 L215.624132,40.0723314 L207.429633,40.0723314 Z" id="Fill-11" fill="#00C7BE"></path>
            <path d="M238.984021,26.3489522 C238.984021,22.6957105 236.219777,19.4380157 232.369417,19.4380157 C228.765619,19.4380157 225.853045,22.5971513 225.853045,26.3489522 C225.853045,30.1010806 228.716176,33.2602161 232.418861,33.2602161 C236.269221,33.2602161 238.984021,30.0018664 238.984021,26.3489522 M232.418861,40.9114931 C224.075704,40.9114931 217.658546,34.7412246 217.658546,26.3489522 C217.658546,17.8584479 224.224361,11.7860838 232.418861,11.7860838 C240.662475,11.7860838 247.17852,17.9570072 247.17852,26.249738 C247.17852,34.8397839 240.662475,40.9114931 232.418861,40.9114931" id="Fill-13" fill="#00C7BE"></path>
            <path d="M266.577832,40.0723314 L266.577832,24.8680092 C266.577832,21.165979 265.29427,19.4377538 262.283137,19.4377538 C258.975671,19.4377538 257.593222,21.2645383 257.593222,24.9665684 L257.593222,40.0723314 L249.398396,40.0723314 L249.398396,12.6744925 L257.05,12.6744925 L257.05,15.587721 L257.148559,15.587721 C258.876457,12.7737066 261.295252,11.736706 264.602718,11.736706 C269.539522,11.736706 274.772331,14.5016045 274.772331,22.5972168 L274.772331,40.0723314 L266.577832,40.0723314 Z" id="Fill-15" fill="#00C7BE"></path>
            <path d="M297.742469,23.337721 C297.10036,20.5237066 294.632777,18.6478062 291.473314,18.6478062 C288.511624,18.6478062 285.943844,20.4251473 285.302718,23.337721 L297.742469,23.337721 Z M285.203504,28.8665357 C285.647839,31.9768828 288.264407,34.0495743 291.621316,34.0495743 C293.842665,34.0495743 295.273903,33.2106745 296.606909,31.4827767 L304.999181,31.4827767 C302.382613,37.4559267 297.39702,40.9608382 291.621316,40.9608382 C283.722823,40.9608382 277.107891,34.5924689 277.107891,26.4474132 C277.107891,18.5495743 283.42649,11.7365422 291.473314,11.7365422 C299.667813,11.7365422 305.936968,18.2037983 305.936968,26.69463 C305.936968,27.4844139 305.887525,28.1258677 305.739522,28.8665357 L285.203504,28.8665357 Z" id="Fill-17" fill="#00C7BE"></path>
            <g id="Group-21" transform="translate(304.846103, 12.531762)">
                <mask id="mask-2" fill="white">
                    <use xlink:href="#path-1"></use>
                </mask>
                <g id="Clip-20"></g>
                <polygon id="Fill-19" fill="#00C7BE" mask="url(#mask-2)" points="5.90183366 36.6733792 10.2462999 26.158317 0.0773411919 0.142927308 8.81473477 0.142927308 14.2941061 16.0384741 14.3933202 16.0384741 19.6258022 0.142927308 28.3137525 0.142927308 14.5904388 36.6733792"></polygon>
            </g>
            <g id="Group-24" transform="translate(0.000000, 0.089064)">
                <mask id="mask-4" fill="white">
                    <use xlink:href="#path-3"></use>
                </mask>
                <g id="Clip-23"></g>
                <polygon id="Fill-22" fill="#00C7BE" mask="url(#mask-4)" points="16.8760314 0.2383759 -0.000196463654 40.018664 11.5151932 35.7200393 16.8760314 47.6398166 22.2368697 35.7200393 33.7522593 40.018664"></polygon>
            </g>
            <path d="M328.09201,38.1777014 L328.09201,38.6023903 L328.300589,38.6023903 C328.483301,38.6023903 328.575311,38.5303536 328.575311,38.3862803 C328.575311,38.3194826 328.553045,38.2677472 328.508513,38.2317289 C328.464964,38.196038 328.40668,38.1777014 328.334643,38.1777014 L328.09201,38.1777014 Z M328.09201,39.2697119 L327.851343,39.2697119 L327.851343,37.998592 L328.427963,37.998592 C328.54093,37.998592 328.63425,38.0349378 328.708906,38.1079568 C328.783235,38.1806483 328.820563,38.2703667 328.820563,38.3764571 C328.820563,38.4684676 328.79666,38.5480354 328.749509,38.6158153 C328.701703,38.6835953 328.640799,38.7284545 328.56516,38.7494106 L328.857564,39.2697119 L328.570399,39.2697119 L328.319908,38.7788802 L328.09201,38.7788802 L328.09201,39.2697119 Z M329.348068,38.7350033 L329.348068,38.5509823 C329.348068,38.2808448 329.248199,38.0542567 329.048788,37.8708906 C328.849378,37.6881794 328.601506,37.5964964 328.305174,37.5964964 C328.1074,37.5964964 327.928618,37.6387361 327.769155,37.7238703 C327.609692,37.8090046 327.485265,37.9239358 327.396202,38.068664 C327.307138,38.2133923 327.262279,38.374165 327.262279,38.5509823 L327.262279,38.7350033 C327.262279,39.0211853 327.360511,39.2575966 327.556647,39.4439096 C327.753111,39.6305501 328.001965,39.7238703 328.302881,39.7238703 C328.603471,39.7238703 328.853307,39.6305501 329.051408,39.4439096 C329.249181,39.2575966 329.348068,39.0211853 329.348068,38.7350033 L329.348068,38.7350033 Z M328.305174,39.9691225 C327.930583,39.9691225 327.62148,39.8515717 327.377538,39.6171251 C327.133923,39.382351 327.012115,39.0883104 327.012115,38.7350033 L327.012115,38.5509823 C327.012115,38.2137197 327.13556,37.9295023 327.382777,37.6980026 C327.629666,37.4665029 327.937132,37.3512443 328.305174,37.3512443 C328.670269,37.3512443 328.975442,37.4674853 329.221676,37.7006221 C329.467911,37.933759 329.591028,38.2169941 329.591028,38.5509823 L329.591028,38.7350033 C329.591028,39.0883104 329.469548,39.382351 329.226588,39.6171251 C328.983955,39.8515717 328.67649,39.9691225 328.305174,39.9691225 L328.305174,39.9691225 Z" id="Fill-25" fill="#00C7BE"></path>
        </g>
    </g>
</svg>