<svg xmlns="http://www.w3.org/2000/svg" width="247.292" height="97.16" viewBox="0 0 247.292 97.16">
  <g id="Group_11_Copy" data-name="Group 11 Copy" transform="translate(246.63 0.66)">
    <g id="Stroke_1" data-name="Stroke 1">
      <path id="Stroke_1-2" data-name="Stroke 1" d="M0,0A316.52,316.52,0,0,1-130.207,28,311.508,311.508,0,0,1-225,13.309" transform="translate(-12 33)" fill="none"/>
      <path id="Stroke_1-3" data-name="Stroke 1" d="M0,0A316.52,316.52,0,0,1-130.207,28,311.508,311.508,0,0,1-225,13.309" transform="translate(-12 33)" fill="none" stroke="#707070" stroke-linecap="round" stroke-miterlimit="10" stroke-width="1"/>
    </g>
    <g id="Stroke_3" data-name="Stroke 3">
      <path id="Stroke_3-2" data-name="Stroke 3" d="M0,0C-41.247,18.838-80,27-124.436,27-156.4,27-184.173,22.8-215,12.848" transform="translate(-18 16)" fill="none"/>
      <path id="Stroke_3-3" data-name="Stroke 3" d="M0,0C-41.247,18.838-80,27-124.436,27-156.4,27-184.173,22.8-215,12.848" transform="translate(-18 16)" fill="none" stroke="#707070" stroke-linecap="round" stroke-miterlimit="10" stroke-width="1"/>
    </g>
    <g id="Stroke_5" data-name="Stroke 5">
      <path id="Stroke_5-2" data-name="Stroke 5" d="M0,0C-41.266,18.38-74.2,25-118.664,25c-31.98,0-55.495-3.344-86.336-13.056" transform="translate(-24)" fill="none"/>
      <path id="Stroke_5-3" data-name="Stroke 5" d="M0,0C-41.266,18.38-74.2,25-118.664,25c-31.98,0-55.495-3.344-86.336-13.056" transform="translate(-24)" fill="none" stroke="#707070" stroke-linecap="round" stroke-miterlimit="10" stroke-width="1"/>
    </g>
    <g id="Stroke_7" data-name="Stroke 7">
      <path id="Stroke_7-2" data-name="Stroke 7" d="M0,0A332.988,332.988,0,0,1-135.978,29,328.02,328.02,0,0,1-235,13.78" transform="translate(-7 49)" fill="none"/>
      <path id="Stroke_7-3" data-name="Stroke 7" d="M0,0A332.988,332.988,0,0,1-135.978,29,328.02,328.02,0,0,1-235,13.78" transform="translate(-7 49)" fill="none" stroke="#707070" stroke-linecap="round" stroke-miterlimit="10" stroke-width="1"/>
    </g>
    <g id="Stroke_9" data-name="Stroke 9">
      <path id="Stroke_9-2" data-name="Stroke 9" d="M0,0A342.486,342.486,0,0,1-142.327,31,336.951,336.951,0,0,1-246,14.726" transform="translate(0 65)" fill="none"/>
      <path id="Stroke_9-3" data-name="Stroke 9" d="M0,0A342.486,342.486,0,0,1-142.327,31,336.951,336.951,0,0,1-246,14.726" transform="translate(0 65)" fill="none" stroke="#707070" stroke-linecap="round" stroke-miterlimit="10" stroke-width="1"/>
    </g>
  </g>
</svg>
